<?xml version="1.0" encoding="UTF-8"?>
<svg version="1.1" xmlns="http://www.w3.org/2000/svg" width="225" height="225">
<path d="M0 0 C74.25 0 148.5 0 225 0 C225 74.25 225 148.5 225 225 C150.75 225 76.5 225 0 225 C0 150.75 0 76.5 0 0 Z " fill="#FBF000" transform="translate(0,0)"/>
<path d="M0 0 C1.010625 0.5775 2.02125 1.155 3.0625 1.75 C7.65459694 5.26735085 12.14354004 9.43062013 14 15 C11.69 15.33 9.38 15.66 7 16 C7.75023437 16.01417969 8.50046875 16.02835938 9.2734375 16.04296875 C21.74806039 16.62427989 29.18892709 21.42303773 38 30 C37 33 37 33 34.56640625 34.5 C33.57511719 34.995 32.58382812 35.49 31.5625 36 C27.10729392 38.19493774 27.10729392 38.19493774 24 42 C24.556875 41.66226563 25.11375 41.32453125 25.6875 40.9765625 C36.42821699 34.69904885 44.38352809 34.36048508 56.4375 37.125 C67.89053948 40.46209495 77.3022368 48.01228535 83.25 58.25 C89.71092047 70.9472635 91.02109891 84.32975736 87.10546875 98.1171875 C82.16376965 111.00402119 73.30390038 119.31373528 61 125 C55.03136087 127.58631625 50.37572855 128.41978326 43.90625 128.29296875 C43.07411987 128.28872391 42.24198975 128.28447906 41.38464355 128.28010559 C38.75608407 128.26346307 36.12832333 128.22583976 33.5 128.1875 C31.70574033 128.17243444 29.9114685 128.15874933 28.1171875 128.14648438 C23.74448917 128.11360714 19.37237947 128.06192722 15 128 C15 124.7 15 121.4 15 118 C14.14921875 117.74863281 13.2984375 117.49726563 12.421875 117.23828125 C8.77015028 115.91682379 5.56803989 114.16814306 2.25 112.1875 C-3.3966397 108.88347102 -9.10961219 105.8559456 -15 103 C-15 99.7 -15 96.4 -15 93 C-10.88150405 94.60817461 -6.82432675 96.33040569 -2.8125 98.1875 C-1.86987305 98.58678711 -1.86987305 98.58678711 -0.90820312 98.99414062 C0.91796875 99.85546875 0.91796875 99.85546875 4 102 C5.16796875 105.5859375 5.16796875 105.5859375 6 109 C7.8656986 110.64814902 7.8656986 110.64814902 10.125 111.4375 C10.84945312 111.74558594 11.57390625 112.05367188 12.3203125 112.37109375 C12.87460938 112.57863281 13.42890625 112.78617187 14 113 C14 110.36 14 107.72 14 105 C13.29915283 104.62190186 12.59830566 104.24380371 11.8762207 103.85424805 C8.68766688 102.13319413 5.50007542 100.41036529 2.3125 98.6875 C1.20970703 98.09259766 0.10691406 97.49769531 -1.02929688 96.88476562 C-2.09599609 96.30791016 -3.16269531 95.73105469 -4.26171875 95.13671875 C-5.24100342 94.60780029 -6.22028809 94.07888184 -7.22924805 93.53393555 C-8.14359619 93.02773682 -9.05794434 92.52153809 -10 92 C-10.93328125 91.48695312 -11.8665625 90.97390625 -12.828125 90.4453125 C-15 89 -15 89 -15.48828125 86.73828125 C-15.43027344 85.93777344 -15.37226562 85.13726562 -15.3125 84.3125 C-15.26738281 83.50425781 -15.22226563 82.69601563 -15.17578125 81.86328125 C-15.11777344 81.24839844 -15.05976562 80.63351563 -15 80 C-10.07655879 80.57249316 -6.4287205 82.76209126 -2.25 85.25 C-1.56550781 85.63285156 -0.88101563 86.01570313 -0.17578125 86.41015625 C1.68605518 87.51251089 3.37847476 88.56639516 5 90 C5.66796875 92.62109375 5.66796875 92.62109375 6 95 C8.04564138 96.67220162 8.04564138 96.67220162 10.5625 97.8125 C11.80193359 98.44091797 11.80193359 98.44091797 13.06640625 99.08203125 C13.70449219 99.38496094 14.34257812 99.68789062 15 100 C15 97.03 15 94.06 15 91 C14.13036621 90.72994141 13.26073242 90.45988281 12.36474609 90.18164062 C6.79448442 88.22546108 1.77892715 85.35317522 -3.375 82.5 C-4.49261719 81.92507812 -5.61023438 81.35015625 -6.76171875 80.7578125 C-9.85704712 79.02684743 -12.46246984 77.4811406 -15 75 C-15.94629065 71.4702465 -15.75470175 68.55259846 -15 65 C-12.6032896 66.26920136 -10.20761907 67.54030187 -7.8125 68.8125 C-7.13896484 69.16892578 -6.46542969 69.52535156 -5.77148438 69.89257812 C-3.84212261 70.91843389 -1.9211126 71.958806 0 73 C1.46953125 73.7734375 1.46953125 73.7734375 2.96875 74.5625 C3.6390625 75.036875 4.309375 75.51125 5 76 C5.3125 79.1875 5.3125 79.1875 5 82 C5.928125 82.28875 6.85625 82.5775 7.8125 82.875 C11 84 11 84 14 86 C14.33 83.03 14.66 80.06 15 77 C14.13036621 76.73268066 13.26073242 76.46536133 12.36474609 76.18994141 C9.07846627 75.02774957 6.21691392 73.63508183 3.1640625 71.9609375 C2.10058594 71.38085938 1.03710938 70.80078125 -0.05859375 70.203125 C-1.15300781 69.59984375 -2.24742188 68.9965625 -3.375 68.375 C-4.49261719 67.76398438 -5.61023438 67.15296875 -6.76171875 66.5234375 C-9.51023549 65.01997535 -12.25619902 63.51204599 -15 62 C-15 58.7 -15 55.4 -15 52 C-10.6366679 53.5904512 -6.75213615 55.74175922 -2.75 58.0625 C-2.11320312 58.42666016 -1.47640625 58.79082031 -0.8203125 59.16601562 C3.85925752 61.85925752 3.85925752 61.85925752 5 63 C5.04063832 64.66617115 5.042721 66.33388095 5 68 C5.721875 68.28875 6.44375 68.5775 7.1875 68.875 C11.09375 70.4375 11.09375 70.4375 15 72 C15 69.36 15 66.72 15 64 C14.28215332 63.72671875 13.56430664 63.4534375 12.82470703 63.171875 C10.03685349 62.01528926 7.4515423 60.69825149 4.8046875 59.25 C3.84175781 58.7240625 2.87882812 58.198125 1.88671875 57.65625 C0.89285156 57.1096875 -0.10101563 56.563125 -1.125 56 C-2.12660156 55.4534375 -3.12820312 54.906875 -4.16015625 54.34375 C-11.57777256 50.28148496 -11.57777256 50.28148496 -15 48 C-15.29296875 45.6171875 -15.29296875 45.6171875 -15.1875 42.875 C-15.14689453 41.50988281 -15.14689453 41.50988281 -15.10546875 40.1171875 C-15.07066406 39.41851562 -15.03585938 38.71984375 -15 38 C-12.78904188 39.07822067 -10.58132694 40.16237404 -8.375 41.25 C-7.75753906 41.55035156 -7.14007813 41.85070313 -6.50390625 42.16015625 C-2.45849848 44.16156852 1.4600101 46.17226032 5 49 C5.3796167 50.65673777 5.71663759 52.32411378 6 54 C8.04564138 55.67220162 8.04564138 55.67220162 10.5625 56.8125 C11.80193359 57.44091797 11.80193359 57.44091797 13.06640625 58.08203125 C13.70449219 58.38496094 14.34257812 58.68789062 15 59 C15 56.03 15 53.06 15 50 C13.67983887 49.59116577 13.67983887 49.59116577 12.33300781 49.17407227 C9.22656764 48.07980983 6.54735453 46.80702306 3.671875 45.21484375 C2.70765625 44.68439453 1.7434375 44.15394531 0.75 43.60742188 C-0.24 43.05634766 -1.23 42.50527344 -2.25 41.9375 C-4.23430297 40.8423174 -6.21867449 39.74725899 -8.203125 38.65234375 C-9.07614258 38.16757568 -9.94916016 37.68280762 -10.84863281 37.18334961 C-12.21857245 36.42982062 -13.60156071 35.69921965 -15 35 C-15 33.35 -15 31.7 -15 30 C-6.23907347 33.38309002 1.98975514 37.82610297 9.94140625 42.80078125 C12.07871412 44.13973 12.07871412 44.13973 15 45 C14.97769347 41.96631125 14.9516435 39.82621424 14 37 C11.76639998 34.88434344 9.23004621 33.74226304 6.4375 32.5 C5.72658203 32.15453125 5.01566406 31.8090625 4.28320312 31.453125 C2.53496358 30.60833811 0.76899598 29.80041214 -1 29 C-1 28.34 -1 27.68 -1 27 C-1.730979 26.89397461 -2.46195801 26.78794922 -3.21508789 26.67871094 C-6.19804411 25.95173467 -8.00121094 24.80458833 -10.55859375 23.140625 C-13.750275 21.50896603 -15.37176017 20.90627949 -18.94580078 21.43945312 C-22.18913069 22.62607552 -25.05905126 24.04508705 -28.0625 25.75 C-29.10599609 26.32967529 -30.14949219 26.90935059 -31.22460938 27.5065918 C-35.23614965 30.08501911 -38.38455117 32.1123348 -39.90185547 36.76611328 C-40.29198177 40.86007299 -40.0810662 44.7720395 -39.76220703 48.86450195 C-39.35427363 56.15343658 -39.35427363 56.15343658 -41.38623047 58.81738281 C-45.65170564 62.12091438 -51.52933277 65 -57 65 C-57 71.27 -57 77.54 -57 84 C-56.34 84 -55.68 84 -55 84 C-55 78.72 -55 73.44 -55 68 C-49.39 65.36 -43.78 62.72 -38 60 C-38 67.92 -38 75.84 -38 84 C-37.34 83.67 -36.68 83.34 -36 83 C-35.67 72.77 -35.34 62.54 -35 52 C-24.875 54.25 -24.875 54.25 -21 56 C-20.84609857 64.79691929 -20.69791794 73.59391093 -20.5570364 82.39104843 C-20.49143958 86.47592189 -20.42387391 90.56074298 -20.35180664 94.64550781 C-20.28232824 98.5876441 -20.21802436 102.52983397 -20.15730476 106.47211456 C-20.1332323 107.97602654 -20.10729661 109.47990989 -20.07946587 110.98375702 C-20.0407988 113.09036282 -20.00876223 115.19697313 -19.97827148 117.30371094 C-19.95828598 118.50284119 -19.93830048 119.70197144 -19.91770935 120.93743896 C-20 124 -20 124 -21 128 C-31.23 128 -41.46 128 -52 128 C-52 127.34 -52 126.68 -52 126 C-52.66 126 -53.32 126 -54 126 C-54 126.66 -54 127.32 -54 128 C-59.61 128 -65.22 128 -71 128 C-71 116.12 -71 104.24 -71 92 C-71.99 91.67 -72.98 91.34 -74 91 C-74 103.21 -74 115.42 -74 128 C-89.66599413 126.43340059 -101.88948605 123.86669517 -112.3125 111.36328125 C-114.85920956 107.79670883 -116.60083503 104.14208243 -118 100 C-118.35707031 98.9996875 -118.71414062 97.999375 -119.08203125 96.96875 C-120.52803625 91.77842629 -120.32898554 86.47291007 -120.3125 81.125 C-120.32861328 80.08730469 -120.34472656 79.04960938 -120.36132812 77.98046875 C-120.36668001 69.49238577 -118.7691234 62.56268433 -114.5 55.1875 C-113.89671875 54.12595703 -113.89671875 54.12595703 -113.28125 53.04296875 C-111.94945136 50.91939958 -110.61889329 48.91597744 -109 47 C-108.34 47 -107.68 47 -107 47 C-106.67 46.01 -106.34 45.02 -106 44 C-102.55715346 41.3069567 -98.79071077 39.16612044 -95 37 C-93.85144531 36.33484375 -93.85144531 36.33484375 -92.6796875 35.65625 C-84.58706605 31.70862978 -73.42319622 30.92647156 -64.81738281 33.70458984 C-60.65794911 35.43461119 -56.81252802 37.59724922 -53 40 C-56.28693056 35.66149202 -58.66995757 33.23158365 -63.8125 31.125 C-64.78832031 30.71507812 -65.76414063 30.30515625 -66.76953125 29.8828125 C-67.50558594 29.59148438 -68.24164063 29.30015625 -69 29 C-67.83132984 21.63737799 -65.4694374 16.91807414 -61 11 C-60.278125 9.96875 -59.55625 8.9375 -58.8125 7.875 C-44.45318964 -8.53564041 -18.15842032 -10.43143295 0 0 Z " fill="#010100" transform="translate(130,11)"/>
<path d="M0 0 C0 0.66 0 1.32 0 2 C0.78375 2.20625 1.5675 2.4125 2.375 2.625 C7.30676796 4.4956706 12.02733054 6.45847296 16 10 C16.90251589 13.059749 16.55514072 14.78018383 16 18 C12.986254 17.36869686 10.62493045 16.37594944 7.953125 14.85546875 C7.19 14.42556641 6.426875 13.99566406 5.640625 13.55273438 C4.85171875 13.10220703 4.0628125 12.65167969 3.25 12.1875 C-2.43151621 8.96323955 -8.13208309 5.87367164 -14 3 C-14 4.65 -14 6.3 -14 8 C-13.13036621 8.26731934 -12.26073242 8.53463867 -11.36474609 8.81005859 C-8.07846627 9.97225043 -5.21691392 11.36491817 -2.1640625 13.0390625 C-1.10058594 13.61914062 -0.03710938 14.19921875 1.05859375 14.796875 C2.15300781 15.40015625 3.24742187 16.0034375 4.375 16.625 C5.49261719 17.23601563 6.61023438 17.84703125 7.76171875 18.4765625 C10.51023549 19.98002465 13.25619902 21.48795401 16 23 C16 25.97 16 28.94 16 32 C12.41005174 30.66659064 9.04479945 29.34884529 6 27 C5.6875 24.3125 5.6875 24.3125 6 22 C5.32582031 21.75507812 4.65164062 21.51015625 3.95703125 21.2578125 C0.35909286 19.72738164 -2.93876063 17.84156692 -6.3125 15.875 C-6.95767578 15.50246094 -7.60285156 15.12992188 -8.26757812 14.74609375 C-9.84675945 13.83367787 -11.42361864 12.91724491 -13 12 C-13.33 14.97 -13.66 17.94 -14 21 C-13.29101562 21.26296875 -12.58203125 21.5259375 -11.8515625 21.796875 C-8.84724146 23.06445155 -6.17237369 24.57609984 -3.375 26.25 C2.98104343 30.0101346 9.39215464 33.69607732 16 37 C16 39.64 16 42.28 16 45 C12.03897659 44.43413951 9.16984689 43.48447459 6 41 C5.81050781 40.08347656 5.62101562 39.16695312 5.42578125 38.22265625 C3.26826107 33.34606954 -0.50509934 31.96678732 -5.125 29.625 C-5.97449219 29.17511719 -6.82398438 28.72523437 -7.69921875 28.26171875 C-9.79051148 27.15732821 -11.89412975 26.07633369 -14 25 C-14 28.3 -14 31.6 -14 35 C-13.20722656 35.2165625 -12.41445312 35.433125 -11.59765625 35.65625 C-6.87309307 37.42090769 -2.7550965 39.91545267 1.5625 42.5 C3.22859668 43.49273197 4.89651391 44.48241613 6.56640625 45.46875 C7.29802979 45.90638672 8.02965332 46.34402344 8.78344727 46.79492188 C11.12967542 48.07050092 13.50440686 49.05493628 16 50 C16 53.3 16 56.6 16 60 C14.34224 59.32004762 12.69890855 58.6048428 11.0625 57.875 C10.14597656 57.48054688 9.22945313 57.08609375 8.28515625 56.6796875 C7.53105469 56.12539062 6.77695313 55.57109375 6 55 C5.90589844 54.04996094 5.81179687 53.09992188 5.71484375 52.12109375 C5.33866101 48.99204603 5.33866101 48.99204603 3.35961914 47.68847656 C1.11088879 46.41960693 -1.16262761 45.28444132 -3.5 44.1875 C-5.07333347 43.4110002 -6.64627162 42.63369871 -8.21875 41.85546875 C-9.2696582 41.35503052 -9.2696582 41.35503052 -10.34179688 40.84448242 C-12 40 -12 40 -13 39 C-13.33 41.97 -13.66 44.94 -14 48 C-13.29786377 48.26280762 -12.59572754 48.52561523 -11.87231445 48.79638672 C-8.78666387 50.08939627 -5.95676792 51.61413092 -3.04296875 53.2578125 C-1.93115234 53.88300781 -0.81933594 54.50820312 0.32617188 55.15234375 C1.48831901 55.8098291 2.65042791 56.46738203 3.8125 57.125 C4.99398189 57.79064641 6.175621 58.45601384 7.35742188 59.12109375 C10.23983905 60.74465934 13.12062331 62.37105015 16 64 C16 66.97 16 69.94 16 73 C12.40587089 71.66503776 9.07829844 70.30872383 6 68 C5.95101562 67.23816406 5.90203125 66.47632812 5.8515625 65.69140625 C4.67362264 61.96846788 2.69998068 61.22978549 -0.62890625 59.41015625 C-1.37011719 59.02730469 -2.11132812 58.64445312 -2.875 58.25 C-3.60847656 57.85167969 -4.34195313 57.45335938 -5.09765625 57.04296875 C-8.05290401 55.45499409 -10.80910252 54.06363249 -14 53 C-14 55.97 -14 58.94 -14 62 C-13.36964844 62.22945313 -12.73929688 62.45890625 -12.08984375 62.6953125 C-7.78366504 64.51359782 -3.69389861 66.69321444 0.4375 68.875 C1.68756836 69.52662109 1.68756836 69.52662109 2.96289062 70.19140625 C5.32420012 71.4345937 7.66625677 72.70589939 10 74 C10.63389648 74.34482422 11.26779297 74.68964844 11.92089844 75.04492188 C13.57421875 76.0234375 13.57421875 76.0234375 16 78 C16.5859375 80.359375 16.5859375 80.359375 16.375 82.75 C16.32085937 83.54921875 16.26671875 84.3484375 16.2109375 85.171875 C16.10652344 86.07679687 16.10652344 86.07679687 16 87 C12.46607738 85.60823737 9.13590125 84.15826935 6 82 C4.875 78.1875 4.875 78.1875 5 75 C3.98873047 74.87818359 3.98873047 74.87818359 2.95703125 74.75390625 C-0.89469141 73.77189506 -3.91807836 71.96156811 -7.3125 69.9375 C-7.95767578 69.56044922 -8.60285156 69.18339844 -9.26757812 68.79492188 C-10.84878152 67.86962507 -12.4249146 66.93567319 -14 66 C-14 69.3 -14 72.6 -14 76 C-12.67983887 76.40883423 -12.67983887 76.40883423 -11.33300781 76.82592773 C-8.22656764 77.92019017 -5.54735453 79.19297694 -2.671875 80.78515625 C-1.70765625 81.31560547 -0.7434375 81.84605469 0.25 82.39257812 C1.735 83.21918945 1.735 83.21918945 3.25 84.0625 C5.23430297 85.1576826 7.21867449 86.25274101 9.203125 87.34765625 C10.07614258 87.83242432 10.94916016 88.31719238 11.84863281 88.81665039 C13.21857245 89.57017938 14.60156071 90.30078035 16 91 C16 94.3 16 97.6 16 101 C27.55 101 39.1 101 51 101 C51 101.33 51 101.66 51 102 C39.12 102 27.24 102 15 102 C14.505 98.04 14.505 98.04 14 94 C13.67 96.31 13.34 98.62 13 101 C3.1 101 -6.8 101 -17 101 C-17.33 100.01 -17.66 99.02 -18 98 C-18.66 98.99 -19.32 99.98 -20 101 C-20.495 65.36 -20.495 65.36 -21 29 C-25.29 27.68 -29.58 26.36 -34 25 C-34 35.23 -34 45.46 -34 56 C-35.98 56.99 -35.98 56.99 -38 58 C-38 50.08 -38 42.16 -38 34 C-42.14705355 36.29678109 -42.14705355 36.29678109 -46.28637695 38.60742188 C-49.07985545 40.13326057 -50.76988992 41 -54 41 C-54 46.28 -54 51.56 -54 57 C-54.66 57 -55.32 57 -56 57 C-56 50.73 -56 44.46 -56 38 C-53.56625 36.68 -51.1325 35.36 -48.625 34 C-47.86010254 33.58234375 -47.09520508 33.1646875 -46.30712891 32.734375 C-41.22222222 30 -41.22222222 30 -39 30 C-39.06807861 29.34515625 -39.13615723 28.6903125 -39.20629883 28.015625 C-40.8989322 9.34556578 -40.8989322 9.34556578 -36.4921875 3.90234375 C-33.08059739 1.8739397 -29.69091477 0.44725902 -26 -1 C-24.20316451 -2.30541484 -22.41111032 -3.61744863 -20.625 -4.9375 C-13.24000276 -9.06215772 -6.49233876 -3.90766948 0 0 Z " fill="#E9E005" transform="translate(129,38)"/>
<path d="M0 0 C10.125 2.25 10.125 2.25 14 4 C14.15390143 12.79691929 14.30208206 21.59391093 14.4429636 30.39104843 C14.50856042 34.47592189 14.57612609 38.56074298 14.64819336 42.64550781 C14.71767176 46.5876441 14.78197564 50.52983397 14.84269524 54.47211456 C14.8667677 55.97602654 14.89270339 57.47990989 14.92053413 58.98375702 C14.9592012 61.09036282 14.99123777 63.19697313 15.02172852 65.30371094 C15.04171402 66.50284119 15.06169952 67.70197144 15.08229065 68.93743896 C15 72 15 72 14 76 C3.77 76 -6.46 76 -17 76 C-17 75.34 -17 74.68 -17 74 C-17.66 74 -18.32 74 -19 74 C-19 74.66 -19 75.32 -19 76 C-24.61 76 -30.22 76 -36 76 C-36 63.46 -36 50.92 -36 38 C-31.71 37.34 -27.42 36.68 -23 36 C-23 28.74 -23 21.48 -23 14 C-22.67 14 -22.34 14 -22 14 C-22 19.94 -22 25.88 -22 32 C-21.34 32 -20.68 32 -20 32 C-20 26.72 -20 21.44 -20 16 C-14.39 13.36 -8.78 10.72 -3 8 C-3 15.92 -3 23.84 -3 32 C-2.34 31.67 -1.68 31.34 -1 31 C-0.67 20.77 -0.34 10.54 0 0 Z " fill="#D2CA08" transform="translate(95,63)"/>
<path d="M0 0 C0.99 0.33 1.98 0.66 3 1 C4.28507231 3.77366972 5.38561904 6.47690127 6.43359375 9.33984375 C7.08911048 11.05927614 7.74471207 12.77867619 8.40039062 14.49804688 C9.42247735 17.22008732 10.43985353 19.94382147 11.4543457 22.66870117 C12.43580371 25.29281245 13.43395309 27.91011619 14.43359375 30.52734375 C14.73164413 31.34508774 15.02969452 32.16283173 15.33677673 33.00535583 C15.62710281 33.76276566 15.91742889 34.52017548 16.21655273 35.30053711 C16.46509506 35.9681456 16.71363739 36.63575409 16.9697113 37.32359314 C18.29328941 39.47721807 19.69540481 40.0618467 22 41 C22 41.66 22 42.32 22 43 C16.72 43 11.44 43 6 43 C6 42.34 6 41.68 6 41 C7.65 41 9.3 41 11 41 C10.01 37.04 9.02 33.08 8 29 C2.06 29 -3.88 29 -10 29 C-10.495 33.95 -10.495 33.95 -11 39 C-9.35 39.66 -7.7 40.32 -6 41 C-6 41.66 -6 42.32 -6 43 C-16.56 43 -27.12 43 -38 43 C-38 42.34 -38 41.68 -38 41 C-35.525 40.505 -35.525 40.505 -33 40 C-34.83246572 36.01287679 -37.23855775 32.41915496 -39.625 28.75 C-40.04523437 28.1003125 -40.46546875 27.450625 -40.8984375 26.78125 C-41.93045673 25.18631119 -42.96498028 23.59299331 -44 22 C-47.52381687 24.54604597 -47.52381687 24.54604597 -50 28 C-50.07065617 30.04055005 -50.08421976 32.08334257 -50.0625 34.125 C-50.04896484 35.76855469 -50.04896484 35.76855469 -50.03515625 37.4453125 C-50.02355469 38.28835937 -50.01195312 39.13140625 -50 40 C-48.02 40.33 -46.04 40.66 -44 41 C-44 41.66 -44 42.32 -44 43 C-50.27 43 -56.54 43 -63 43 C-63 42.34 -63 41.68 -63 41 C-60.525 40.505 -60.525 40.505 -58 40 C-57.67 27.79 -57.34 15.58 -57 3 C-59.97 2.505 -59.97 2.505 -63 2 C-63 1.67 -63 1.34 -63 1 C-56.73 1 -50.46 1 -44 1 C-44 1.33 -44 1.66 -44 2 C-46.31 2.33 -48.62 2.66 -51 3 C-50.67 9.6 -50.34 16.2 -50 23 C-39.95643579 14.31764965 -39.95643579 14.31764965 -34 3 C-35.65 3 -37.3 3 -39 3 C-39 2.34 -39 1.68 -39 1 C-33.39 1 -27.78 1 -22 1 C-24 3 -24 3 -27.125 4.5625 C-32.10845218 7.30077583 -35.43395174 11.66516731 -39 16 C-37.39706789 20.70012296 -34.83510058 24.49361863 -32.0625 28.5625 C-31.61970703 29.22185547 -31.17691406 29.88121094 -30.72070312 30.56054688 C-29.86660119 31.82706167 -29.00550375 33.08889554 -28.13647461 34.34521484 C-27.21035493 35.69370876 -26.32201291 37.06808519 -25.4453125 38.44921875 C-24.11067283 40.1872469 -24.11067283 40.1872469 -21.95703125 40.390625 C-21.24933594 40.34421875 -20.54164062 40.2978125 -19.8125 40.25 C-18.554375 40.1675 -17.29625 40.085 -16 40 C-15.73719238 39.1754834 -15.47438477 38.3509668 -15.20361328 37.50146484 C-13.85957136 33.59147513 -12.32693866 29.7936538 -10.7421875 25.9765625 C-10.43427277 25.23038666 -10.12635803 24.48421082 -9.80911255 23.71542358 C-8.8329746 21.3511589 -7.85403309 18.98806708 -6.875 16.625 C-6.20944934 15.0143998 -5.54408284 13.40372348 -4.87890625 11.79296875 C-3.25473346 7.86109538 -1.62804667 3.93027083 0 0 Z " fill="#040403" transform="translate(66,149)"/>
<path d="M0 0 C9 1.125 9 1.125 13 3 C13.15390143 11.79691929 13.30208206 20.59391093 13.4429636 29.39104843 C13.50856042 33.47592189 13.57612609 37.56074298 13.64819336 41.64550781 C13.71767176 45.5876441 13.78197564 49.52983397 13.84269524 53.47211456 C13.8667677 54.97602654 13.89270339 56.47990989 13.92053413 57.98375702 C13.9592012 60.09036282 13.99123777 62.19697313 14.02172852 64.30371094 C14.04171402 65.50284119 14.06169952 66.70197144 14.08229065 67.93743896 C14 71 14 71 13 75 C8.71 75 4.42 75 0 75 C0 50.25 0 25.5 0 0 Z " fill="#000000" transform="translate(96,64)"/>
<path d="M0 0 C0 0.66 0 1.32 0 2 C0.78375 2.20625 1.5675 2.4125 2.375 2.625 C7.30676796 4.4956706 12.02733054 6.45847296 16 10 C16.90251589 13.059749 16.55514072 14.78018383 16 18 C12.986254 17.36869686 10.62493045 16.37594944 7.953125 14.85546875 C7.19 14.42556641 6.426875 13.99566406 5.640625 13.55273438 C4.85171875 13.10220703 4.0628125 12.65167969 3.25 12.1875 C-2.43151621 8.96323955 -8.13208309 5.87367164 -14 3 C-14 4.65 -14 6.3 -14 8 C-13.13036621 8.26731934 -12.26073242 8.53463867 -11.36474609 8.81005859 C-8.07846627 9.97225043 -5.21691392 11.36491817 -2.1640625 13.0390625 C-1.10058594 13.61914062 -0.03710938 14.19921875 1.05859375 14.796875 C2.15300781 15.40015625 3.24742187 16.0034375 4.375 16.625 C5.49261719 17.23601563 6.61023438 17.84703125 7.76171875 18.4765625 C10.51023549 19.98002465 13.25619902 21.48795401 16 23 C16 25.97 16 28.94 16 32 C12.41005174 30.66659064 9.04479945 29.34884529 6 27 C5.6875 24.3125 5.6875 24.3125 6 22 C5.34644531 21.76539062 4.69289062 21.53078125 4.01953125 21.2890625 C0.06875848 19.60244541 -3.58704258 17.50573525 -7.3125 15.375 C-8.05306641 14.95476563 -8.79363281 14.53453125 -9.55664062 14.1015625 C-11.37269011 13.07051505 -13.18656533 12.03563954 -15 11 C-14.99419922 11.61415771 -14.98839844 12.22831543 -14.98242188 12.86108398 C-14.97791016 13.66876221 -14.97339844 14.47644043 -14.96875 15.30859375 C-14.96294922 16.10837646 -14.95714844 16.90815918 -14.95117188 17.73217773 C-15.00534532 20.24826355 -15.37139221 22.56414481 -16 25 C-16.33 25 -16.66 25 -17 25 C-17 17.08 -17 9.16 -17 1 C-15.35 0.67 -13.7 0.34 -12 0 C-12 -0.66 -12 -1.32 -12 -2 C-14.34025814 -1.01414323 -16.67255515 -0.01546364 -19 1 C-19.68030273 1.29632324 -20.36060547 1.59264648 -21.06152344 1.89794922 C-30.39628261 5.73261681 -30.39628261 5.73261681 -36.2578125 13.2578125 C-36.47979261 16.28676685 -36.44670176 18.99999159 -36 22 C-35.05125 21.95875 -34.1025 21.9175 -33.125 21.875 C-30 22 -30 22 -28 24 C-28.33 24.33 -28.66 24.66 -29 25 C-30.65 25 -32.3 25 -34 25 C-34 35.23 -34 45.46 -34 56 C-35.98 56.99 -35.98 56.99 -38 58 C-38 50.08 -38 42.16 -38 34 C-42.14705355 36.29678109 -42.14705355 36.29678109 -46.28637695 38.60742188 C-49.07985545 40.13326057 -50.76988992 41 -54 41 C-54 46.28 -54 51.56 -54 57 C-54.66 57 -55.32 57 -56 57 C-56 50.73 -56 44.46 -56 38 C-53.56625 36.68 -51.1325 35.36 -48.625 34 C-47.86010254 33.58234375 -47.09520508 33.1646875 -46.30712891 32.734375 C-41.22222222 30 -41.22222222 30 -39 30 C-39.06807861 29.34515625 -39.13615723 28.6903125 -39.20629883 28.015625 C-40.8989322 9.34556578 -40.8989322 9.34556578 -36.4921875 3.90234375 C-33.08059739 1.8739397 -29.69091477 0.44725902 -26 -1 C-24.20316451 -2.30541484 -22.41111032 -3.61744863 -20.625 -4.9375 C-13.24000276 -9.06215772 -6.49233876 -3.90766948 0 0 Z " fill="#EFE604" transform="translate(129,38)"/>
<path d="M0 0 C10 1 10 1 14 2 C14 15.2 14 28.4 14 42 C9.38 42 4.76 42 0 42 C0 28.14 0 14.28 0 0 Z " fill="#000000" transform="translate(79,97)"/>
<path d="M0 0 C0.33 0 0.66 0 1 0 C1 12.54 1 25.08 1 38 C-4.28 38 -9.56 38 -15 38 C-15 26.78 -15 15.56 -15 4 C-8.07 2.515 -8.07 2.515 -1 1 C-0.67 0.67 -0.34 0.34 0 0 Z " fill="#000000" transform="translate(74,101)"/>
<path d="M0 0 C0.99 0.33 1.98 0.66 3 1 C4.28507231 3.77366972 5.38561904 6.47690127 6.43359375 9.33984375 C7.08911048 11.05927614 7.74471207 12.77867619 8.40039062 14.49804688 C9.42247735 17.22008732 10.43985353 19.94382147 11.4543457 22.66870117 C12.43580371 25.29281245 13.43395309 27.91011619 14.43359375 30.52734375 C14.73164413 31.34508774 15.02969452 32.16283173 15.33677673 33.00535583 C15.62710281 33.76276566 15.91742889 34.52017548 16.21655273 35.30053711 C16.46509506 35.9681456 16.71363739 36.63575409 16.9697113 37.32359314 C18.29328941 39.47721807 19.69540481 40.0618467 22 41 C22 41.66 22 42.32 22 43 C16.72 43 11.44 43 6 43 C6 42.34 6 41.68 6 41 C7.98 40.505 7.98 40.505 10 40 C9.49547781 36.25212088 8.91840767 32.67363066 8 29 C2.06 29 -3.88 29 -10 29 C-10.33 32.3 -10.66 35.6 -11 39 C-9.35 39.66 -7.7 40.32 -6 41 C-6 41.66 -6 42.32 -6 43 C-10.95 43 -15.9 43 -21 43 C-21 42.34 -21 41.68 -21 41 C-20.2265625 40.56864746 -19.453125 40.13729492 -18.65625 39.69287109 C-15.50813222 37.68652471 -14.86362341 36.34077508 -13.5 32.9140625 C-13.08999756 31.90609619 -12.67999512 30.89812988 -12.25756836 29.85961914 C-11.8425708 28.79219482 -11.42757324 27.72477051 -11 26.625 C-10.56502197 25.54404053 -10.13004395 24.46308105 -9.68188477 23.34936523 C-8.43589484 20.2398768 -7.21259099 17.12264382 -6 14 C-5.69433105 13.21351074 -5.38866211 12.42702148 -5.07373047 11.61669922 C-3.977428 8.78352023 -2.89458871 5.94659371 -1.83984375 3.09765625 C-1 1 -1 1 0 0 Z " fill="#050504" transform="translate(150,149)"/>
<path d="M0 0 C3.534765 -0.7305673 6.47425449 -0.84419259 10 0 C13.13596366 2.62623105 15.34364842 5.78215252 17.67089844 9.12841797 C19.74874322 12.05434708 21.96502103 14.87099839 24.1628418 17.70727539 C25.87753169 19.92252546 27.58147374 22.14531607 29.27734375 24.375 C29.75421631 25.00148437 30.23108887 25.62796875 30.72241211 26.2734375 C31.86284142 27.81464065 32.93649547 29.4047432 34 31 C34 22.09 34 13.18 34 4 C32.35 3.34 30.7 2.68 29 2 C29 1.34 29 0.68 29 0 C33.95 0 38.9 0 44 0 C44 0.66 44 1.32 44 2 C42.35 2.66 40.7 3.32 39 4 C38.67 16.54 38.34 29.08 38 42 C33.24808367 40.81202092 31.90343845 38.8504584 29.125 35.125 C28.66246826 34.52091309 28.19993652 33.91682617 27.72338867 33.29443359 C26.13416164 31.20698924 24.56508624 29.10560337 23 27 C22.38044434 26.16726562 21.76088867 25.33453125 21.12255859 24.4765625 C17.05800877 19.00165552 13.01935008 13.50816188 9 8 C8.91293714 12.41654255 8.85958622 16.83286457 8.8125 21.25 C8.78736328 22.50425781 8.76222656 23.75851563 8.73632812 25.05078125 C8.72666016 26.25605469 8.71699219 27.46132812 8.70703125 28.703125 C8.6913208 29.81333008 8.67561035 30.92353516 8.65942383 32.06738281 C9.04064792 35.35000916 9.68164089 36.68197998 12 39 C12.99 39.33 13.98 39.66 15 40 C15 40.66 15 41.32 15 42 C10.05 42 5.1 42 0 42 C0 41.34 0 40.68 0 40 C0.639375 39.71125 1.27875 39.4225 1.9375 39.125 C4.15206079 38.17176549 4.15206079 38.17176549 5 36 C5.28178137 31.46938361 5.31361857 26.93516826 5.35009766 22.39697266 C5.36666169 20.88574834 5.39395843 19.37460252 5.43212891 17.86376953 C5.48694208 15.68220507 5.50877358 13.50247305 5.5234375 11.3203125 C5.54325684 10.01336426 5.56307617 8.70641602 5.58349609 7.35986328 C5.30726067 3.81629208 5.30726067 3.81629208 2.46728516 1.54248047 C1.65308105 1.03346191 0.83887695 0.52444336 0 0 Z " fill="#050503" transform="translate(175,150)"/>
<path d="M0 0 C5.94 0 11.88 0 18 0 C14 2 14 2 12 2 C15.33619986 8.24430328 18.98770692 14.16769769 23 20 C25.11728637 17.26801758 26.97541839 14.50256954 28.6875 11.5 C29.34298828 10.37078125 29.34298828 10.37078125 30.01171875 9.21875 C31.27125628 6.7958301 31.27125628 6.7958301 31 3 C28.525 2.505 28.525 2.505 26 2 C26 1.34 26 0.68 26 0 C31.28 0 36.56 0 42 0 C42 0.66 42 1.32 42 2 C41.236875 2.23589844 40.47375 2.47179687 39.6875 2.71484375 C35.6727769 4.634675 34.577718 7.51033484 32.4921875 11.30859375 C31 14 31 14 29.5078125 16.09765625 C24.66337595 23.20009289 25.54490456 30.75771591 26 39 C27.65 39.33 29.3 39.66 31 40 C31 40.66 31 41.32 31 42 C24.73 42 18.46 42 12 42 C12 41.34 12 40.68 12 40 C14.97 39.505 14.97 39.505 18 39 C20.18255618 25.48027698 15.0214895 17.5170307 7.32861328 6.7331543 C5.06630389 3.78200869 3.60992401 2.7219848 0 2 C0 1.34 0 0.68 0 0 Z " fill="#040403" transform="translate(88,150)"/>
<path d="M0 0 C4.38474066 1.87917457 8.2201278 3.57435954 12.27734375 5.91796875 C13.20224609 6.44970703 14.12714844 6.98144531 15.08007812 7.52929688 C16.02302734 8.07650391 16.96597656 8.62371094 17.9375 9.1875 C18.90751953 9.74630859 19.87753906 10.30511719 20.87695312 10.88085938 C23.25330758 12.25048239 25.62756672 13.62359972 28 15 C28 17.31 28 19.62 28 22 C18.76 22 9.52 22 0 22 C0 14.74 0 7.48 0 0 Z " fill="#010101" transform="translate(113,117)"/>
<path d="M0 0 C0 0.66 0 1.32 0 2 C-1.65 2.33 -3.3 2.66 -5 3 C-5 11.25 -5 19.5 -5 28 C-11.27 26.68 -17.54 25.36 -24 24 C-25.13396739 16.32391304 -25.13396739 16.32391304 -24 12 C-20.10904917 8.41894791 -15.71099863 6.28945728 -11 4 C-9.63820487 3.17919197 -8.28185708 2.34906763 -6.9375 1.5 C-4 0 -4 0 0 0 Z " fill="#0E0D02" transform="translate(117,36)"/>
<path d="M0 0 C0 7.92 0 15.84 0 24 C-2.31 23.67 -4.62 23.34 -7 23 C-8.8115721 22.9383819 -10.62505032 22.91267192 -12.4375 22.9375 C-14.6959375 22.9684375 -14.6959375 22.9684375 -17 23 C-17 18.05 -17 13.1 -17 8 C-14.35535616 6.66426106 -11.70937327 5.33130754 -9.0625 4 C-8.30775391 3.6184375 -7.55300781 3.236875 -6.77539062 2.84375 C-6.05673828 2.4828125 -5.33808594 2.121875 -4.59765625 1.75 C-3.93258057 1.41484375 -3.26750488 1.0796875 -2.58227539 0.734375 C-1 0 -1 0 0 0 Z " fill="#060601" transform="translate(92,71)"/>
<path d="M0 0 C0.99 0.33 1.98 0.66 3 1 C4.28507231 3.77366972 5.38561904 6.47690127 6.43359375 9.33984375 C7.08911048 11.05927614 7.74471207 12.77867619 8.40039062 14.49804688 C9.42247735 17.22008732 10.43985353 19.94382147 11.4543457 22.66870117 C12.43580371 25.29281245 13.43395309 27.91011619 14.43359375 30.52734375 C14.73164413 31.34508774 15.02969452 32.16283173 15.33677673 33.00535583 C15.62710281 33.76276566 15.91742889 34.52017548 16.21655273 35.30053711 C16.46509506 35.9681456 16.71363739 36.63575409 16.9697113 37.32359314 C18.29328941 39.47721807 19.69540481 40.0618467 22 41 C22 41.66 22 42.32 22 43 C16.72 43 11.44 43 6 43 C6 42.34 6 41.68 6 41 C7.65 41 9.3 41 11 41 C10.01 37.04 9.02 33.08 8 29 C2.72 29 -2.56 29 -8 29 C-8 28.34 -8 27.68 -8 27 C-3.05 27 1.9 27 7 27 C6.4946875 25.80761719 5.989375 24.61523438 5.46875 23.38671875 C4.81222146 21.82042923 4.15598671 20.25401653 3.5 18.6875 C3.16613281 17.90181641 2.83226563 17.11613281 2.48828125 16.30664062 C2.17246094 15.54931641 1.85664062 14.79199219 1.53125 14.01171875 C1.23798828 13.31522217 0.94472656 12.61872559 0.64257812 11.90112305 C0 10 0 10 0 7 C-0.66 7 -1.32 7 -2 7 C-1.125 2.25 -1.125 2.25 0 0 Z " fill="#050404" transform="translate(66,149)"/>
<path d="M0 0 C2.72772048 2.72772048 3.7460131 5.97005745 5.125 9.5 C5.40214844 10.18964844 5.67929688 10.87929687 5.96484375 11.58984375 C8 16.73287408 8 16.73287408 8 19 C3.05 19 -1.9 19 -7 19 C-6.15199097 14.75995483 -5.05741374 11.25219111 -3.5 7.25 C-3.0565625 6.10015625 -2.613125 4.9503125 -2.15625 3.765625 C-1 1 -1 1 0 0 Z " fill="#EBE204" transform="translate(149,157)"/>
<path d="M0 0 C2.75979741 3.28585851 4.18309468 6.62228796 5.6875 10.625 C6.12449219 11.77226562 6.56148437 12.91953125 7.01171875 14.1015625 C8 17 8 17 8 19 C3.05 19 -1.9 19 -7 19 C-5.13446958 12.377367 -2.95594577 6.21198756 0 0 Z " fill="#EEE504" transform="translate(65,157)"/>
<path d="M0 0 C10.60838935 4.09650008 20.5527704 9.70184693 30 16 C29.34 17.32 28.68 18.64 28 20 C26.83428467 19.37170288 26.83428467 19.37170288 25.64501953 18.73071289 C22.76396346 17.17806473 19.8827634 15.62568443 17.00146484 14.07348633 C15.75401103 13.4013934 14.50661486 12.72919349 13.25927734 12.05688477 C11.46727365 11.09102756 9.67506362 10.12555423 7.8828125 9.16015625 C6.80402832 8.57886963 5.72524414 7.99758301 4.61376953 7.39868164 C3.085478 6.58086152 1.55035603 5.77517801 0 5 C0 3.35 0 1.7 0 0 Z " fill="#0A0A05" transform="translate(115,41)"/>
<path d="M0 0 C4.95 0 9.9 0 15 0 C15 0.66 15 1.32 15 2 C13.35 2.66 11.7 3.32 10 4 C9.67 16.54 9.34 29.08 9 42 C8.67 42 8.34 42 8 42 C7.95101562 41.36191406 7.90203125 40.72382813 7.8515625 40.06640625 C7.77679688 39.24011719 7.70203125 38.41382813 7.625 37.5625 C7.52058594 36.32693359 7.52058594 36.32693359 7.4140625 35.06640625 C7.27742187 34.38449219 7.14078125 33.70257813 7 33 C6.34 32.67 5.68 32.34 5 32 C5 22.76 5 13.52 5 4 C2.525 3.01 2.525 3.01 0 2 C0 1.34 0 0.68 0 0 Z " fill="#36340A" transform="translate(204,150)"/>
<path d="M0 0 C0.33 0 0.66 0 1 0 C1 3.3 1 6.6 1 10 C1.639375 10.226875 2.27875 10.45375 2.9375 10.6875 C7.13320261 12.48565826 11.03900556 14.73904021 15 17 C15 18.32 15 19.64 15 21 C10.02790438 19.23570801 5.56561939 16.6060834 1 14 C1 16.97 1 19.94 1 23 C0.67 23 0.34 23 0 23 C-0.72526532 15.15597666 -1.21074074 7.80255144 0 0 Z " fill="#E7DF07" transform="translate(114,49)"/>
<path d="M0 0 C5.28 0 10.56 0 16 0 C16 0.66 16 1.32 16 2 C15.24074219 2.226875 14.48148438 2.45375 13.69921875 2.6875 C10.38088353 4.30104651 9.55288578 5.78985143 7.8125 9 C5.12944984 13.87055016 5.12944984 13.87055016 3 16 C2.34 16 1.68 16 1 16 C2.05875074 12.59687262 3.00902154 9.98646769 5 7 C5 5.68 5 4.36 5 3 C3.35 2.67 1.7 2.34 0 2 C0 1.34 0 0.68 0 0 Z " fill="#111104" transform="translate(114,150)"/>
<path d="M0 0 C5.61 0 11.22 0 17 0 C15 2 15 2 11.75 3.6875 C7.55677402 5.99948833 4.88307488 9.24038587 2 13 C1.01 12.34 0.02 11.68 -1 11 C-0.195625 10.2575 0.60875 9.515 1.4375 8.75 C3.76988591 6.24695171 4.63534394 5.2819045 5 2 C3.35 2 1.7 2 0 2 C0 1.34 0 0.68 0 0 Z " fill="#090903" transform="translate(27,150)"/>
<path d="M0 0 C0 0.66 0 1.32 0 2 C-0.66 2 -1.32 2 -2 2 C-1.42547254 5.93075644 -1.42547254 5.93075644 1 9 C0.67 9.66 0.34 10.32 0 11 C-0.66 11 -1.32 11 -2 11 C-1.98839844 11.59167969 -1.97679688 12.18335938 -1.96484375 12.79296875 C-1.91677614 17.00231785 -1.93993117 20.8922333 -3 25 C-3.33 25 -3.66 25 -4 25 C-4 17.08 -4 9.16 -4 1 C-2 0 -2 0 0 0 Z " fill="#FEF800" transform="translate(116,38)"/>
<path d="M0 0 C0 1.65 0 3.3 0 5 C-1.45537568 5.83848804 -2.91440373 6.67063934 -4.375 7.5 C-5.59316406 8.19609375 -5.59316406 8.19609375 -6.8359375 8.90625 C-9 10 -9 10 -11 10 C-10.37988211 6.96831253 -9.86905244 4.69105375 -7.37890625 2.7109375 C-2.68839928 0 -2.68839928 0 0 0 Z " fill="#E6DE06" transform="translate(103,38)"/>
<path d="M0 0 C0.33 0 0.66 0 1 0 C1.37480651 5.12235564 0.10480209 8.36943541 -2 13 C-2.69140522 15.77888613 -2.69140522 15.77888613 -3 18 C-3.66 18 -4.32 18 -5 18 C-5 18.99 -5 19.98 -5 21 C-5.99 21.33 -6.98 21.66 -8 22 C-5.60309494 14.55697903 -2.84737559 7.28162848 0 0 Z " fill="#131305" transform="translate(145,160)"/>
<path d="M0 0 C2.64 1.32 5.28 2.64 8 4 C7.34 7.3 6.68 10.6 6 14 C5.67 14 5.34 14 5 14 C4.95875 12.906875 4.9175 11.81375 4.875 10.6875 C4.39434602 6.75003667 4.39434602 6.75003667 0.9375 5.0625 C-0.031875 4.711875 -1.00125 4.36125 -2 4 C-1.34 2.68 -0.68 1.36 0 0 Z " fill="#E2DB06" transform="translate(136,125)"/>
<path d="M0 0 C0.33 0.66 0.66 1.32 1 2 C2.65 2 4.3 2 6 2 C3.0782575 3.5114788 0.12202703 4.79316037 -2.9375 6 C-3.77152344 6.33 -4.60554687 6.66 -5.46484375 7 C-6.71974609 7.495 -6.71974609 7.495 -8 8 C-9.66698538 8.66586933 -11.33374479 9.33230561 -13 10 C-9.63843559 4.8845759 -5.32405622 2.6734043 0 0 Z " fill="#D7D20A" transform="translate(165,44)"/>
<path d="M0 0 C0.99 0.33 1.98 0.66 3 1 C1.90912656 3.81833877 0.80325527 6.62902949 -0.3125 9.4375 C-0.62123047 10.23994141 -0.92996094 11.04238281 -1.24804688 11.86914062 C-1.55419922 12.63291016 -1.86035156 13.39667969 -2.17578125 14.18359375 C-2.45333252 14.89056396 -2.73088379 15.59753418 -3.0168457 16.32592773 C-4 18 -4 18 -7 19 C-4.94235079 12.54646385 -2.57616518 6.2638737 0 0 Z " fill="#121106" transform="translate(63,156)"/>
<path d="M0 0 C3 1 3 1 4 3 C3.34 3 2.68 3 2 3 C2 8.28 2 13.56 2 19 C1.34 19 0.68 19 0 19 C0 12.73 0 6.46 0 0 Z " fill="#FEF801" transform="translate(73,76)"/>
<path d="M0 0 C0.33 0 0.66 0 1 0 C1 3.3 1 6.6 1 10 C1.99 10.33 2.98 10.66 4 11 C3.67 11.99 3.34 12.98 3 14 C2.34 14 1.68 14 1 14 C1 16.97 1 19.94 1 23 C0.67 23 0.34 23 0 23 C-0.72526532 15.15597666 -1.21074074 7.80255144 0 0 Z " fill="#C7C007" transform="translate(114,49)"/>
<path d="M0 0 C4.43458973 1.3937282 6.87378374 3.60582235 10 7 C9.67 7.66 9.34 8.32 9 9 C5.04 7.02 1.08 5.04 -3 3 C-2.01 2.67 -1.02 2.34 0 2 C0 1.34 0 0.68 0 0 Z " fill="#DBD508" transform="translate(68,43)"/>
<path d="M0 0 C0.33 0 0.66 0 1 0 C1.3125 2.75 1.3125 2.75 1 6 C-1.5 8.375 -1.5 8.375 -4 10 C-4.66 9.34 -5.32 8.68 -6 8 C-5.195625 7.236875 -4.39125 6.47375 -3.5625 5.6875 C-0.83200976 3.20569102 -0.83200976 3.20569102 0 0 Z " fill="#302F09" transform="translate(32,153)"/>
<path d="M0 0 C2.97 0.495 2.97 0.495 6 1 C6 1.99 6 2.98 6 4 C2 4 2 4 0 3 C0 2.01 0 1.02 0 0 Z " fill="#E2DB05" transform="translate(130,55)"/>
<path d="M0 0 C1.67542976 0.28604898 3.34385343 0.61781233 5 1 C5 1.66 5 2.32 5 3 C1.04 3 -2.92 3 -7 3 C-6.67 2.34 -6.34 1.68 -6 1 C-4.7934375 1.0309375 -4.7934375 1.0309375 -3.5625 1.0625 C-1.06645115 1.29633621 -1.06645115 1.29633621 0 0 Z " fill="#000007" transform="translate(139,189)"/>
<path d="M0 0 C-0.66 0.66 -1.32 1.32 -2 2 C-2.39764263 3.98821313 -2.73775349 5.98944339 -3 8 C-3.33 8 -3.66 8 -4 8 C-4.12375 6.865625 -4.2475 5.73125 -4.375 4.5625 C-4.58125 3.386875 -4.7875 2.21125 -5 1 C-5.66 0.67 -6.32 0.34 -7 0 C-4.3333581 -1.33332095 -2.83319697 -0.67102033 0 0 Z " fill="#D6D00A" transform="translate(139,112)"/>
<path d="M0 0 C0.66 1.32 1.32 2.64 2 4 C1.01 5.32 0.02 6.64 -1 8 C-1.66 7.67 -2.32 7.34 -3 7 C-2.01 4.69 -1.02 2.38 0 0 Z " fill="#E4DE05" transform="translate(65,157)"/>
</svg>
