<?xml version="1.0" encoding="UTF-8"?>
<svg version="1.1" xmlns="http://www.w3.org/2000/svg" width="170" height="170">
<path d="M0 0 C1.53065135 0.30314663 3.06135825 0.60601286 4.59211731 0.90861511 C7.77905992 1.54037041 10.9649194 2.17728089 14.15014648 2.81762695 C18.20912586 3.63292907 22.2710494 4.43236715 26.33399487 5.22763538 C29.48839027 5.84739928 32.64076389 6.47699969 35.79265785 7.1093502 C37.28894468 7.40806792 38.78589436 7.70348704 40.28352928 7.99537086 C61.0249942 12.05007092 61.0249942 12.05007092 67.640625 20.00390625 C70.2667621 24.36071075 71.09373025 28.90230293 71.42626953 33.91552734 C71.54616745 35.63925064 71.54616745 35.63925064 71.66848755 37.39779663 C71.7456601 38.62906281 71.82283264 39.86032898 71.90234375 41.12890625 C71.98829803 42.41423248 72.07425232 43.69955872 72.16281128 45.02383423 C72.34419084 47.74524378 72.5201037 50.46693355 72.69189453 53.18896484 C72.9093046 56.62984684 73.13831715 60.06983146 73.37099838 63.50971031 C76.21478217 105.69131376 76.21478217 105.69131376 70.83203125 111.98046875 C63.91803826 119.09317539 53.84758612 121.65745011 44.76953125 124.91796875 C42.10316094 125.89240319 39.43861097 126.8717054 36.7741394 127.85131836 C34.93527246 128.52713199 33.09584865 129.20143219 31.25588989 129.87426758 C20.28938236 133.89119287 9.40590066 138.12202702 -1.48025513 142.35079956 C-3.87023622 143.27869313 -6.26124152 144.20390654 -8.65234375 145.12890625 C-9.35783859 145.40423691 -10.06333344 145.67956757 -10.79020691 145.96324158 C-17.88529206 148.70604555 -24.84097779 150.53730062 -32.38671875 148.33203125 C-37.39046695 146.08034456 -41.36297225 142.72395009 -44.16796875 137.98046875 C-46.3888487 131.85258647 -46.45797408 126.15610242 -46.44262695 119.68017578 C-46.44773788 118.56219604 -46.45284882 117.44421631 -46.45811462 116.2923584 C-46.47198071 112.6076111 -46.47105602 108.92305149 -46.46875 105.23828125 C-46.47263862 102.6690972 -46.47697364 100.09991378 -46.48173523 97.5307312 C-46.48919109 92.14920697 -46.48904971 86.76775507 -46.48364258 81.38623047 C-46.47760599 75.18377637 -46.48991093 68.9815493 -46.51121265 62.77913392 C-46.53101494 56.79103147 -46.53399501 50.80304713 -46.53047752 44.81490707 C-46.53098987 42.27686912 -46.53621138 39.73882747 -46.54628944 37.20080948 C-46.55866973 33.64688032 -46.55185196 30.09347203 -46.5402832 26.53955078 C-46.54792694 25.49821991 -46.55557068 24.45688904 -46.56344604 23.38400269 C-46.50769179 15.60786495 -45.24246767 9.31223975 -41.10546875 2.66796875 C-29.37066966 -8.06812404 -14.01599038 -2.81082658 0 0 Z " fill="#61855E" transform="translate(58.16796875,14.01953125)"/>
<path d="M0 0 C1.43530178 0.28560563 2.87067719 0.57084142 4.30612183 0.85572815 C7.28701553 1.44896597 10.26687976 2.0470672 13.24609375 2.64868164 C17.06622643 3.41962347 20.88884671 4.17735149 24.71232796 4.93148708 C27.6644577 5.51536818 30.61510932 6.10645241 33.56536484 6.6997242 C34.97553267 6.98232177 36.38617047 7.26258464 37.79727554 7.5404644 C39.7584151 7.92770194 41.71740705 8.32576886 43.67626953 8.72436523 C45.34739304 9.0595945 45.34739304 9.0595945 47.05227661 9.40159607 C49.6796875 10.12890625 49.6796875 10.12890625 51.6796875 12.12890625 C51.050625 12.19207031 50.4215625 12.25523438 49.7734375 12.3203125 C37.20175732 14.11897156 31.19002038 23.80819536 24.00927734 33.34667969 C20.85457066 37.57535372 17.74045077 41.83155954 14.6796875 46.12890625 C15.2365625 46.17789063 15.7934375 46.226875 16.3671875 46.27734375 C17.1303125 46.35210937 17.8934375 46.426875 18.6796875 46.50390625 C19.4221875 46.57351562 20.1646875 46.643125 20.9296875 46.71484375 C24.5918827 47.26625382 28.09585355 48.19498342 31.6796875 49.12890625 C32.54142681 61.14709202 32.79870819 73.08136704 32.6796875 85.12890625 C24.54388292 88.57058579 16.41454417 91.95363088 8.0546875 94.81640625 C-0.57343676 97.77698511 -9.06873677 101.07687084 -17.5703125 104.37890625 C-18.26183411 104.64738373 -18.95335571 104.91586121 -19.66583252 105.19247437 C-23.88628977 106.83209224 -28.10537436 108.47514208 -32.3203125 110.12890625 C-33.247229 110.46647949 -34.17414551 110.80405273 -35.12915039 111.15185547 C-38.11896914 112.48503147 -38.94012424 114.1711398 -40.5078125 117.00390625 C-40.99636719 117.86757812 -41.48492187 118.73125 -41.98828125 119.62109375 C-43.13270006 121.77568869 -44.23401027 123.94472999 -45.3203125 126.12890625 C-45.39054046 111.81177668 -45.44316824 97.49467401 -45.47574902 83.17740726 C-45.49138813 76.5289282 -45.51259459 69.88059589 -45.54663086 63.23217773 C-45.5792864 56.81310833 -45.59717873 50.39415027 -45.60494423 43.9750042 C-45.61047657 41.52905971 -45.62127986 39.08312114 -45.63750267 36.6372242 C-45.65935878 33.20471267 -45.66227594 29.77265809 -45.66088867 26.34008789 C-45.67706741 24.83172615 -45.67706741 24.83172615 -45.693573 23.29289246 C-45.66009866 15.61145184 -44.34243793 9.37656225 -40.2578125 2.81640625 C-28.68521129 -7.77129273 -13.87468824 -2.80140219 0 0 Z " fill="#685A60" transform="translate(57.3203125,13.87109375)"/>
<path d="M0 0 C5.41931672 7.03775519 5.40601372 15.45579504 5.89453125 23.97265625 C5.97907059 25.281241 6.06360992 26.58982574 6.15071106 27.93806458 C6.37376512 31.39601829 6.58178632 34.85471842 6.7868042 38.31378174 C6.95650078 41.13530282 7.13665213 43.95611026 7.3173933 46.77694225 C7.69139863 52.61518949 8.05710873 58.45395616 8.40698242 64.29370117 C8.46899338 65.32436203 8.53100433 66.35502289 8.59489441 67.41691589 C8.71670696 70.03071202 8.75111509 72.6260896 8.7265625 75.2421875 C7.30431292 73.37080647 5.9001493 71.52196109 4.66015625 69.5234375 C2.29010981 65.83148397 0.18550043 63.1724551 -4.140625 61.68359375 C-13.68190814 59.70893259 -21.81848341 61.54499078 -30.2734375 66.2421875 C-31.29458641 67.22058154 -32.29889166 68.21736536 -33.2734375 69.2421875 C-34.68125267 56.52879284 -35.57523194 44.03491837 -35.2734375 31.2421875 C-36.16546875 31.10941406 -37.0575 30.97664063 -37.9765625 30.83984375 C-39.14703125 30.66324219 -40.3175 30.48664062 -41.5234375 30.3046875 C-42.68359375 30.13066406 -43.84375 29.95664062 -45.0390625 29.77734375 C-47.50450711 29.3694139 -49.86768312 28.90317447 -52.2734375 28.2421875 C-47.20291995 17.57847884 -34.58666674 -1.47214928 -23.2734375 -5.7578125 C-13.92199375 -7.65980106 -7.28389878 -6.26475245 0 0 Z " fill="#7C8A94" transform="translate(124.2734375,31.7578125)"/>
<path d="M0 0 C0.66 1.32 1.32 2.64 2 4 C3.39771091 6.07357641 3.39771091 6.07357641 5.0625 8.0625 C5.58972656 8.73410156 6.11695313 9.40570313 6.66015625 10.09765625 C12.33167589 14.7087248 20.60419421 15.69054037 27.62890625 17.04296875 C28.50401352 17.21629227 29.37912079 17.38961578 30.28074646 17.56819153 C33.04028365 18.11345197 35.8013232 18.65061121 38.5625 19.1875 C40.44867358 19.55870726 42.3347424 19.9304472 44.22070312 20.30273438 C48.81261537 21.20797904 53.405892 22.10596847 58 23 C56.28203695 26.57956532 54.19866893 29.48713617 51.75 32.625 C51.31526367 33.18421143 50.88052734 33.74342285 50.43261719 34.31958008 C49.47348409 35.55258411 48.51279602 36.7843797 47.55078125 38.01513672 C45.93637564 40.08143357 44.32702196 42.15158237 42.71875 44.22265625 C39.75342227 48.0404101 36.78443988 51.85530355 33.81445312 55.66943359 C32.03712937 57.95230934 30.26057188 60.23577866 28.484375 62.51953125 C27.90824463 63.26017822 27.33211426 64.0008252 26.73852539 64.76391602 C25.58343364 66.24959013 24.42896948 67.73575242 23.27514648 69.22241211 C20.2370069 73.13495354 17.18542234 77.0359572 14.11328125 80.921875 C13.15905273 82.13423828 13.15905273 82.13423828 12.18554688 83.37109375 C10.97108828 84.91354481 9.75257695 86.45281689 8.52929688 87.98828125 C5.50944987 91.83301026 3.00243378 95.49983079 1 100 C0.67 100 0.34 100 0 100 C0 67 0 34 0 0 Z " fill="#9C4135" transform="translate(13,36)"/>
<path d="M0 0 C0 0.66 0 1.32 0 2 C0.721875 2.20625 1.44375 2.4125 2.1875 2.625 C6.49178127 4.72931529 9.00060403 8.00659505 11.13232422 12.25854492 C12.20220412 15.63887171 12.22547872 18.50625011 12.1953125 22.05078125 C12.1924826 22.70958786 12.18965271 23.36839447 12.18673706 24.04716492 C12.17560924 26.13580062 12.15051948 28.22399556 12.125 30.3125 C12.11496059 31.73501982 12.10583642 33.1575464 12.09765625 34.58007812 C12.07569447 38.05352681 12.04121646 41.52672033 12 45 C-2.90910264 42.7377335 -2.90910264 42.7377335 -8.9375 41.625 C-10.14277344 41.41101562 -11.34804688 41.19703125 -12.58984375 40.9765625 C-20.01643486 38.8498182 -22.87381834 34.98054526 -28 29 C-28.33 62 -28.66 95 -29 129 C-29.33 129 -29.66 129 -30 129 C-30.07022796 114.68287043 -30.12285574 100.36576776 -30.15543652 86.04850101 C-30.17107563 79.40002195 -30.19228209 72.75168964 -30.22631836 66.10327148 C-30.2589739 59.68420208 -30.27686623 53.26524402 -30.28463173 46.84609795 C-30.29016407 44.40015346 -30.30096736 41.95421489 -30.31719017 39.50831795 C-30.33904628 36.07580642 -30.34196344 32.64375184 -30.34057617 29.21118164 C-30.35675491 27.7028199 -30.35675491 27.7028199 -30.3732605 26.16398621 C-30.33978616 18.48254559 -29.02212543 12.247656 -24.9375 5.6875 C-17.36402484 -1.24142409 -9.80712815 -1.55026768 0 0 Z " fill="#C64545" transform="translate(42,11)"/>
<path d="M0 0 C0.33 0 0.66 0 1 0 C1.33 2.31 1.66 4.62 2 7 C2.39316406 6.55011719 2.78632812 6.10023437 3.19140625 5.63671875 C9.00066403 0.37952866 17.6744073 -0.69266761 25.20703125 -0.37109375 C30.65344626 0.3525558 34.28483975 1.88701264 37.78515625 6.19921875 C42.45446644 13.05416349 43.77938125 17.65271387 43 26 C41.42625743 31.8839929 38.04618444 35.44459686 33.0703125 38.8046875 C27.65131634 41.93339095 23.28932335 42.47421976 17.34765625 40.89453125 C13.14331401 39.29254394 9.28933648 37.08071048 6 34 C5.66871094 33.15050781 5.33742188 32.30101562 4.99609375 31.42578125 C3.75378362 28.4003907 2.85075383 28.39257434 0 27 C-1.73925781 25.48779297 -1.73925781 25.48779297 -3.453125 23.7421875 C-4.071875 23.11699219 -4.690625 22.49179688 -5.328125 21.84765625 C-5.96234375 21.19667969 -6.5965625 20.54570313 -7.25 19.875 C-7.8996875 19.21628906 -8.549375 18.55757812 -9.21875 17.87890625 C-10.81711727 16.25703357 -12.41061897 14.6306719 -14 13 C-12.60399265 10.2079853 -10.99583616 9.99837067 -8.125 8.875 C-6.79855469 8.34519531 -6.79855469 8.34519531 -5.4453125 7.8046875 C-3 7 -3 7 0 7 C0 4.69 0 2.38 0 0 Z " fill="#99936C" transform="translate(90,92)"/>
<path d="M0 0 C0.09954745 4.69557647 0.17178467 9.39052663 0.21972656 14.08691406 C0.23973053 15.68142408 0.26694301 17.27586178 0.30175781 18.87011719 C0.6804885 36.67045939 0.6804885 36.67045939 -6 44.27734375 C-6.66 44.82519531 -7.32 45.37304688 -8 45.9375 C-8.66 46.50339844 -9.32 47.06929687 -10 47.65234375 C-14.70811858 50.82480646 -20.52354523 50.5773371 -26 50 C-32.18563198 48.19222727 -36.54008184 44.36570914 -40 39 C-42.75479517 32.53222003 -42.43800512 26.9014729 -40.046875 20.4140625 C-36.05089182 12.39802396 -30.07059667 9.96614933 -22 7 C-20.34456135 6.36194885 -18.68964221 5.72254871 -17.03515625 5.08203125 C-13.69460953 3.80846556 -10.35145884 2.54372304 -6.9921875 1.3203125 C-6.29464355 1.06523926 -5.59709961 0.81016602 -4.87841797 0.54736328 C-3 0 -3 0 0 0 Z " fill="#A17466" transform="translate(54,113)"/>
<path d="M0 0 C7.76904879 0.59722442 15.30232995 1.905613 22.9375 3.43359375 C24.13938965 3.67159195 25.3412793 3.90959015 26.57958984 4.15480042 C29.10123797 4.65583853 31.62239145 5.15937195 34.14306641 5.6652832 C38.01418699 6.44034045 41.8877981 7.20196817 45.76171875 7.96289062 C48.21630768 8.452314 50.67074063 8.94252043 53.125 9.43359375 C54.28636475 9.6607457 55.44772949 9.88789764 56.64428711 10.12193298 C57.71300049 10.3387825 58.78171387 10.55563202 59.8828125 10.77905273 C60.82527832 10.96700912 61.76774414 11.15496552 62.73876953 11.34861755 C65 12 65 12 67 14 C66.3709375 14.06316406 65.741875 14.12632813 65.09375 14.19140625 C52.52206982 15.99006531 46.51033288 25.67928911 39.32958984 35.21777344 C36.17488316 39.44644747 33.06076327 43.70265329 30 48 C27.37428665 47.52450066 24.7494696 47.04477433 22.125 46.5625 C21.37863281 46.42779297 20.63226563 46.29308594 19.86328125 46.15429688 C14.2265625 45.11328125 14.2265625 45.11328125 12 44 C11.98598145 42.6996582 11.98598145 42.6996582 11.97167969 41.37304688 C11.92737423 38.12224259 11.86563047 34.87234373 11.79248047 31.62207031 C11.76444929 30.22180039 11.74314684 28.82137749 11.72900391 27.42089844 C11.62029911 16.11368696 11.62029911 16.11368696 7 6 C5.20157171 4.14265696 5.20157171 4.14265696 3.25 3.0625 C2.1775 2.381875 1.105 1.70125 0 1 C0 0.67 0 0.34 0 0 Z " fill="#715077" transform="translate(42,12)"/>
<path d="M0 0 C4.90042095 4.71494685 6.27100407 9.13153153 7.125 15.75 C6.86009481 22.13295369 3.55166351 27.99532829 -0.9375 32.375 C-1.741875 32.87 -2.54625 33.365 -3.375 33.875 C-3.94734375 34.22949219 -4.5196875 34.58398438 -5.109375 34.94921875 C-12.13493526 37.82000803 -21.47270535 36.36000464 -28.5078125 34.01953125 C-31.31242907 32.30038343 -32.65977316 30.70493663 -34.375 27.875 C-34.92028132 24.87851792 -34.88936454 21.97488918 -34.8125 18.9375 C-34.81958984 18.15181641 -34.82667969 17.36613281 -34.83398438 16.55664062 C-34.76937756 10.61778302 -33.54762478 6.50422721 -29.68359375 1.828125 C-20.86732926 -6.19670029 -9.6000791 -7.65553753 0 0 Z " fill="#5A9CBB" transform="translate(122.375,30.125)"/>
<path d="M0 0 C0.33 0 0.66 0 1 0 C1.70954349 3.28126595 2.17740641 6.45344646 2.38891602 9.80273438 C2.44890274 10.7271936 2.50888947 11.65165283 2.57069397 12.60412598 C2.63115402 13.5907019 2.69161407 14.57727783 2.75390625 15.59375 C2.85166603 17.13017151 2.85166603 17.13017151 2.95140076 18.69763184 C3.0882634 20.85935545 3.22348543 23.02118347 3.35717773 25.18310547 C3.56177006 28.48820815 3.77166577 31.79294147 3.98242188 35.09765625 C4.11489598 37.20050116 4.2470676 39.30336515 4.37890625 41.40625 C4.44139053 42.39282593 4.50387482 43.37940186 4.56825256 44.39587402 C4.65350441 45.78256287 4.65350441 45.78256287 4.74047852 47.19726562 C4.79075699 48.00603149 4.84103546 48.81479736 4.89283752 49.64807129 C5.00464534 52.10195283 5.01810953 54.54391897 5 57 C3.53118891 55.05103116 2.07102118 53.09872829 0.64584351 51.11755371 C-2.92152462 46.20717179 -6.82585851 41.90746484 -11.1484375 37.65625 C-11.80582916 37.00168823 -12.46322083 36.34712646 -13.14053345 35.67272949 C-15.21398671 33.61035267 -17.2943284 31.55509155 -19.375 29.5 C-20.79343289 28.09161313 -22.21140598 26.68276302 -23.62890625 25.2734375 C-27.08065124 21.84358627 -30.53858665 18.42009252 -34 15 C-31.28884817 13.64442409 -29.95228926 14.38236626 -27 15 C-16.23209384 15.93987917 -16.23209384 15.93987917 -6.62109375 11.77734375 C-3.50091072 8.35642018 -1.71938049 4.25711997 0 0 Z " fill="#449099" transform="translate(128,50)"/>
<path d="M0 0 C0.57105469 0.56203125 1.14210938 1.1240625 1.73046875 1.703125 C2.60638672 2.53070313 2.60638672 2.53070313 3.5 3.375 C4.91796875 4.953125 4.91796875 4.953125 5.91796875 6.953125 C-0.56654938 15.70262552 -7.13672452 24.35751952 -13.97460938 32.83447266 C-17.44315927 37.13765689 -20.80909311 41.49829253 -24.08203125 45.953125 C-24.41203125 45.293125 -24.74203125 44.633125 -25.08203125 43.953125 C-24.75203125 43.293125 -24.42203125 42.633125 -24.08203125 41.953125 C-23.92542242 39.32932187 -23.82374045 36.72787648 -23.765625 34.1015625 C-23.73445335 32.94051498 -23.73445335 32.94051498 -23.70265198 31.75601196 C-23.63719677 29.28014108 -23.57829038 26.80416298 -23.51953125 24.328125 C-23.47634218 22.65103052 -23.43272777 20.97394693 -23.38867188 19.296875 C-23.28151954 15.18240192 -23.1802408 11.06782086 -23.08203125 6.953125 C-20.70789799 5.9925978 -18.33277606 5.03465147 -15.95703125 4.078125 C-15.291875 3.80871094 -14.62671875 3.53929688 -13.94140625 3.26171875 C-2.5886875 -1.30162898 -2.5886875 -1.30162898 0 0 Z " fill="#608A7C" transform="translate(77.08203125,105.046875)"/>
<path d="M0 0 C9 9 18 18 27 27 C25.20171641 31.64278049 22.96927498 35.01492042 20 39 C17.37428665 38.52450066 14.7494696 38.04477433 12.125 37.5625 C11.37863281 37.42779297 10.63226563 37.29308594 9.86328125 37.15429688 C4.2265625 36.11328125 4.2265625 36.11328125 2 35 C1.97494385 34.11739502 1.9498877 33.23479004 1.92407227 32.32543945 C1.8286647 29.03593385 1.72944807 25.74658818 1.62768555 22.45727539 C1.58450196 21.03642225 1.54281592 19.61552274 1.50268555 18.19458008 C1.44457905 16.1465053 1.38100362 14.09866035 1.31640625 12.05078125 C1.27974854 10.82012939 1.24309082 9.58947754 1.20532227 8.3215332 C1.02730577 5.44173016 0.65390895 2.80412912 0 0 Z " fill="#915068" transform="translate(52,21)"/>
<path d="M0 0 C0.33 0 0.66 0 1 0 C1 10.23 1 20.46 1 31 C-3.7025 32.794375 -8.405 34.58875 -13.25 36.4375 C-14.72758789 37.00267334 -16.20517578 37.56784668 -17.72753906 38.15014648 C-18.89510742 38.59430908 -20.06267578 39.03847168 -21.265625 39.49609375 C-23.05661621 40.17949829 -23.05661621 40.17949829 -24.88378906 40.87670898 C-27.26151077 41.73379905 -29.53619091 42.46404153 -32 43 C-29.35132264 38.23612446 -26.04996565 34.08118496 -22.6875 29.8125 C-21.43748118 28.21485847 -20.18748178 26.61720175 -18.9375 25.01953125 C-17.97070312 23.78710693 -17.97070312 23.78710693 -16.984375 22.52978516 C-13.71222261 18.35827396 -10.4485612 14.18018399 -7.1875 10 C-6.28100708 8.84334839 -6.28100708 8.84334839 -5.35620117 7.66333008 C-4.79908447 6.94943115 -4.24196777 6.23553223 -3.66796875 5.5 C-2.92969849 4.55640625 -2.92969849 4.55640625 -2.17651367 3.59375 C-0.92631551 1.99547349 -0.92631551 1.99547349 0 0 Z " fill="#925F5B" transform="translate(53,82)"/>
<path d="M0 0 C3.95175459 0.83268843 7.90273403 1.66895068 11.85302734 2.50854492 C13.1972195 2.79371102 14.54162009 3.07789644 15.88623047 3.36108398 C17.81792736 3.76809466 19.74882019 4.17891558 21.6796875 4.58984375 C22.84226074 4.83597412 24.00483398 5.08210449 25.20263672 5.33569336 C28 6 28 6 30 7 C30 14.92 30 22.84 30 31 C23.94993142 25.81422693 18.26769301 20.45387356 12.64526367 14.83056641 C11.04688087 13.23440256 9.44061854 11.64644686 7.83398438 10.05859375 C6.81722113 9.04475921 5.80092728 8.03045365 4.78515625 7.015625 C3.86613525 6.10071289 2.94711426 5.18580078 2.00024414 4.24316406 C0 2 0 2 0 0 Z " fill="#B24339" transform="translate(23,49)"/>
<path d="M0 0 C1.65 1.65 3.3 3.3 5 5 C6.32806922 6.30737038 7.65743611 7.61342424 8.98828125 8.91796875 C10.42978738 10.34104467 11.87119148 11.76422394 13.3125 13.1875 C14.42334961 14.27321289 14.42334961 14.27321289 15.55664062 15.38085938 C16.25595703 16.07373047 16.95527344 16.76660156 17.67578125 17.48046875 C18.31427002 18.10848389 18.95275879 18.73649902 19.6105957 19.38354492 C21 21 21 21 21 23 C17.87694627 24.17192435 14.75125261 25.33663876 11.625 26.5 C10.73554687 26.83386719 9.84609375 27.16773437 8.9296875 27.51171875 C8.07890625 27.82753906 7.228125 28.14335938 6.3515625 28.46875 C5.17327881 28.90864258 5.17327881 28.90864258 3.97119141 29.35742188 C2 30 2 30 0 30 C0 20.1 0 10.2 0 0 Z " fill="#434F58" transform="translate(54,82)"/>
<path d="M0 0 C8.415 1.485 8.415 1.485 17 3 C15.07346081 6.85307838 12.80940237 10.05875983 10.1875 13.4375 C9.76146484 13.99759766 9.33542969 14.55769531 8.89648438 15.13476562 C8.47044922 15.68712891 8.04441406 16.23949219 7.60546875 16.80859375 C7.22543701 17.30157959 6.84540527 17.79456543 6.45385742 18.30249023 C4.43710413 20.65723174 2.19227067 22.80772933 0 25 C0 16.75 0 8.5 0 0 Z " fill="#62403C" transform="translate(54,56)"/>
<path d="M0 0 C3.8425303 0.72047443 5.45767292 1.57152696 8 4.5625 C8.66017005 7.36391726 8.60984064 9.75493175 8 12.5625 C6.4375 15.0625 6.4375 15.0625 4 16.5625 C0.5625 17.125 0.5625 17.125 -3 16.5625 C-6.38121991 14.11651113 -7.76936783 12.66953441 -8.625 8.5625 C-7.58351809 3.56338683 -5.03644185 0.94433285 0 0 Z " fill="#FBFAF9" transform="translate(112,103.4375)"/>
<path d="M0 0 C2.22617565 0.46623679 3.86052038 0.9923077 5.875 2.0625 C7.53952406 5.28751536 7.49275169 8.51110693 6.875 12 C5.3125 14.5 5.3125 14.5 2.875 16 C-0.5625 16.5625 -0.5625 16.5625 -4.125 16 C-7.50621991 13.55401113 -8.89436783 12.10703441 -9.75 8 C-8.60803132 2.51855035 -5.6733388 -0.51290332 0 0 Z " fill="#FCFAF9" transform="translate(34.125,134)"/>
<path d="M0 0 C2.66589042 0.54323805 3.75768995 0.96351964 5.875 2.75 C7.21538506 5.84964046 7.42167869 7.71409302 6.875 11.0625 C4.24288535 14.73150829 2.78645674 15.90259531 -1.6875 16.6875 C-5.125 16.0625 -5.125 16.0625 -7.5625 13.9375 C-9.41555839 10.52787255 -9.84088388 8.88054737 -9.125 5.0625 C-6.50620524 1.2161452 -4.62486834 -0.35838463 0 0 Z " fill="#FBFCFD" transform="translate(109.125,37.9375)"/>
<path d="M0 0 C4.10703441 0.85563217 5.55401113 2.24378009 8 5.625 C8.63007693 9.61548721 8.63021887 11.64185857 6.4375 15.0625 C3.01685857 17.25521887 0.99048721 17.25507693 -3 16.625 C-6.38121991 14.17901113 -7.76936783 12.73203441 -8.625 8.625 C-7.58039389 3.61089068 -5.01410932 1.04460611 0 0 Z " fill="#FDF9F8" transform="translate(33,22.375)"/>
<path d="M0 0 C1.29945577 2.59891154 1.0223077 4.32666656 0.87890625 7.2265625 C0.83056641 8.2578125 0.78222656 9.2890625 0.73242188 10.3515625 C0.67634766 11.43179688 0.62027344 12.51203125 0.5625 13.625 C0.51029297 14.71296875 0.45808594 15.8009375 0.40429688 16.921875 C0.27437403 19.61482134 0.1378079 22.30744565 0 25 C-5.28 24.01 -10.56 23.02 -16 22 C-14.51308762 19.02617524 -13.20953472 16.78120688 -11.25 14.1796875 C-10.46109375 13.12974609 -10.46109375 13.12974609 -9.65625 12.05859375 C-9.1096875 11.33800781 -8.563125 10.61742187 -8 9.875 C-7.4534375 9.14667969 -6.906875 8.41835938 -6.34375 7.66796875 C-2.28148496 2.28148496 -2.28148496 2.28148496 0 0 Z " fill="#896883" transform="translate(88,38)"/>
<path d="M0 0 C0.33 0 0.66 0 1 0 C1.02505615 0.55872803 1.0501123 1.11745605 1.07592773 1.69311523 C1.19343105 4.27472428 1.3154438 6.85610236 1.4375 9.4375 C1.47681641 10.31599609 1.51613281 11.19449219 1.55664062 12.09960938 C1.82862668 17.76947262 2.31777645 23.36448953 3 29 C-3.03331362 24.01595832 -8.5184171 18.58084697 -14 13 C-12.60399265 10.2079853 -10.99583616 9.99837067 -8.125 8.875 C-6.79855469 8.34519531 -6.79855469 8.34519531 -5.4453125 7.8046875 C-3 7 -3 7 0 7 C0 4.69 0 2.38 0 0 Z " fill="#818177" transform="translate(90,92)"/>
<path d="M0 0 C5.66129431 4.69766975 10.85228904 9.74723372 16 15 C15.01 15.495 15.01 15.495 14 16 C13.41863281 15.69707031 12.83726563 15.39414063 12.23828125 15.08203125 C7.46176616 12.77296549 0.78103682 13.15888222 -4.234375 14.67578125 C-5.84558501 15.40220286 -7.42594847 16.196229 -9 17 C-9.99 17 -10.98 17 -12 17 C-10.25477062 12.94785821 -7.5771843 9.69396039 -4.875 6.25 C-4.40707031 5.64800781 -3.93914062 5.04601562 -3.45703125 4.42578125 C-2.30774993 2.94813384 -1.15428765 1.47373995 0 0 Z " fill="#83827D" transform="translate(108,79)"/>
<path d="M0 0 C0.66 0.33 1.32 0.66 2 1 C0.39766277 2.93903849 -1.20678478 4.87626204 -2.8125 6.8125 C-3.26431641 7.35970703 -3.71613281 7.90691406 -4.18164062 8.47070312 C-6.36778363 11.10364908 -8.57677924 13.57677924 -11 16 C-15.62 11.38 -20.24 6.76 -25 2 C-22.29084239 0.6454212 -20.95605633 1.3973089 -18 2 C-15.64785537 2.11585592 -13.29246249 2.17490662 -10.9375 2.1875 C-9.12572266 2.20876953 -9.12572266 2.20876953 -7.27734375 2.23046875 C-4.15684913 2.01102992 -2.66955705 1.46116633 0 0 Z " fill="#4C93A7" transform="translate(119,63)"/>
<path d="M0 0 C0.33 0 0.66 0 1 0 C1.66 6.27 2.32 12.54 3 19 C-4.875 12.25 -4.875 12.25 -7 9 C-5.85793642 7.49712782 -4.71125043 5.99776716 -3.5625 4.5 C-2.92441406 3.6646875 -2.28632812 2.829375 -1.62890625 1.96875 C-0.82259766 0.99421875 -0.82259766 0.99421875 0 0 Z " fill="#8E7B57" transform="translate(90,102)"/>
<path d="M0 0 C1.66413655 3.3282731 0.81867406 6.99733973 0.5625 10.625 C0.51029297 11.42679688 0.45808594 12.22859375 0.40429688 13.0546875 C0.27451629 15.03679103 0.13790265 17.01844499 0 19 C-1.17825358 18.09827532 -2.34231577 17.17798498 -3.5 16.25 C-4.1496875 15.73953125 -4.799375 15.2290625 -5.46875 14.703125 C-7 13 -7 13 -7 9 C-5.46875 6.640625 -5.46875 6.640625 -3.5 4.25 C-2.8503125 3.45078125 -2.200625 2.6515625 -1.53125 1.828125 C-1.0259375 1.22484375 -0.520625 0.6215625 0 0 Z " fill="#6C688F" transform="translate(88,38)"/>
</svg>
