<?xml version="1.0" encoding="UTF-8"?>
<svg version="1.1" xmlns="http://www.w3.org/2000/svg" width="422" height="637">
<path d="M0 0 C3.58156903 2.78283844 6.81139719 5.77846841 10 9 C10.69738281 9.66386719 11.39476562 10.32773438 12.11328125 11.01171875 C24.05768711 23.18805482 29 39.33112237 29 56 C117.11 56 205.22 56 296 56 C296 80.42 296 104.84 296 130 C252.77 130 209.54 130 165 130 C165 226.69 165 323.38 165 423 C142.72470967 423 125.73796437 416.18475775 109.671875 400.765625 C96.39163926 386.94333882 88.73025545 368.59491995 88.68115234 349.44604492 C88.66608816 348.06687566 88.66608816 348.06687566 88.65071964 346.6598444 C88.61979828 343.60005788 88.60274321 340.54036294 88.5859375 337.48046875 C88.56705383 335.27503844 88.54742669 333.06961439 88.52711487 330.86419678 C88.47487487 324.88476398 88.43545934 318.90530899 88.39890671 312.92576218 C88.37500761 309.18869044 88.34737238 305.45166569 88.31838989 301.71463013 C87.87484692 244.47679215 87.90597687 187.23919193 88 130 C68.53 130 49.06 130 29 130 C29.03029297 135.206604 29.06058594 140.41320801 29.09179688 145.77758789 C29.19282221 163.17574656 29.29235064 180.57391356 29.39115143 197.972085 C29.45096162 208.49807725 29.51125439 219.0240663 29.57275391 229.55004883 C30.10252599 320.308118 30.10252599 320.308118 30 357 C28.41327085 357.01305741 26.82651029 357.02233003 25.23974609 357.0300293 C24.35612396 357.03560349 23.47250183 357.04117767 22.56210327 357.04692078 C2.19155711 356.67386718 -14.99608738 345.97971118 -28.9375 332.06640625 C-38.99510607 321.26794973 -46.1291365 306.5135641 -46.12304783 291.59022808 C-46.12503888 290.5108704 -46.12702993 289.43151271 -46.12908131 288.31944722 C-46.12616847 287.1394903 -46.12325563 285.95953338 -46.12025452 284.74382019 C-46.12110894 283.48589749 -46.12196337 282.22797479 -46.12284368 280.93193322 C-46.12507945 277.44293529 -46.1210799 273.95396807 -46.11606562 270.46497405 C-46.11174815 266.70156393 -46.11320847 262.93815555 -46.1139679 259.17474365 C-46.11449231 252.65522539 -46.11135414 246.13571714 -46.10573006 239.6162014 C-46.09760386 230.19007023 -46.09499869 220.7639439 -46.09374207 211.3378096 C-46.09155331 196.04462097 -46.084898 180.75143768 -46.07543945 165.45825195 C-46.06626078 150.60213243 -46.05918217 135.74601436 -46.05493164 120.88989258 C-46.05466892 119.97419855 -46.05440619 119.05850453 -46.05413551 118.1150622 C-46.05283047 113.52130551 -46.05156677 108.9275488 -46.05032361 104.33379209 C-46.03995649 66.22252433 -46.02234295 28.11126251 -46 -10 C-29.63794485 -13.4143461 -13.81016962 -9.11686979 0 0 Z M238.65625 75.06640625 C233.58236963 80.98992225 231.60875251 87.80516934 231.72265625 95.5 C232.55664802 103.01767232 236.20979676 110.1273022 242 115 C248.76452075 119.43669589 255.35714595 121.70648895 263.43359375 120.6953125 C271.61921272 118.83088135 277.70673104 113.6343424 282.515625 106.8671875 C286.11442835 99.99904872 286.2343288 91.83506311 284.33984375 84.4140625 C281.33510644 76.7916553 275.638199 71.0358861 268.15625 67.7265625 C257.11091669 64.00476541 247.00167251 67.11431308 238.65625 75.06640625 Z " fill="#AB272D" transform="translate(79,175)"/>
<path d="M0 0 C24.09 0 48.18 0 73 0 C73.0883164 31.44879168 73.16212105 62.8974629 73.20426132 94.34634003 C73.20926366 98.06601727 73.21444099 101.78569425 73.21972656 105.50537109 C73.2207758 106.24583721 73.22182505 106.98630332 73.22290608 107.74920779 C73.24027279 119.71121362 73.27178969 131.6731419 73.30861118 143.63510185 C73.34612491 155.92518915 73.3682578 168.21523606 73.37635398 180.50537825 C73.38182023 188.07838152 73.39903321 195.65116557 73.43166587 203.22410131 C73.45547177 209.04820643 73.4577937 214.87217364 73.45243073 220.69631767 C73.45352471 223.07297038 73.4613944 225.44963193 73.4768219 227.82623482 C73.5748133 243.7105104 73.00186192 258.85080356 65.4375 273.25 C65.10016846 273.90419922 64.76283691 274.55839844 64.4152832 275.23242188 C55.7686604 291.1547904 40.27906138 302.45121514 23.328125 308.2578125 C14.89380356 310.71925733 9.28194984 311 0 311 C0 208.37 0 105.74 0 0 Z " fill="#A02328" transform="translate(302,326)"/>
<path d="M0 0 C24.09 0 48.18 0 73 0 C73.0883164 31.44879168 73.16212105 62.8974629 73.20426132 94.34634003 C73.20926366 98.06601727 73.21444099 101.78569425 73.21972656 105.50537109 C73.2207758 106.24583721 73.22182505 106.98630332 73.22290608 107.74920779 C73.24027279 119.71121362 73.27178969 131.6731419 73.30861118 143.63510185 C73.34612491 155.92518915 73.3682578 168.21523606 73.37635398 180.50537825 C73.38182023 188.07838152 73.39903321 195.65116557 73.43166587 203.22410131 C73.45547177 209.04820643 73.4577937 214.87217364 73.45243073 220.69631767 C73.45352471 223.07297038 73.4613944 225.44963193 73.4768219 227.82623482 C73.57358576 243.5115268 73.4663691 259.17159713 65 273 C64.34 273.33 63.68 273.66 63 274 C62.3201001 272.72322388 62.3201001 272.72322388 61.62646484 271.4206543 C59.91607987 268.20909675 58.20496643 264.99792778 56.49365234 261.78686523 C55.758433 260.40708541 55.02340131 259.02720557 54.28857422 257.6472168 C53.57474052 256.30670918 52.8604081 254.96646702 52.14556885 253.62649536 C51.44007068 252.30171032 50.73705872 250.97559823 50.03656006 249.64816284 C48.44422389 246.64199951 46.81736635 243.69531834 45.06738281 240.77587891 C44.50116211 239.82503418 43.93494141 238.87418945 43.3515625 237.89453125 C42.84705566 237.0847583 42.34254883 236.27498535 41.82275391 235.44067383 C40.39957397 231.2188549 42.49719525 228.10241497 44.26171875 224.23364258 C44.73222656 223.29673584 45.20273437 222.3598291 45.6875 221.39453125 C46.48124023 219.80898438 46.48124023 219.80898438 47.29101562 218.19140625 C47.85498047 217.07636719 48.41894531 215.96132813 49 214.8125 C49.57943359 213.66007813 50.15886719 212.50765625 50.75585938 211.3203125 C54.27380448 204.34634432 57.85078499 197.40610946 61.5 190.5 C61.90516846 189.73131592 62.31033691 188.96263184 62.7277832 188.1706543 C64.38534458 185.0313808 66.0540439 181.9014987 67.76171875 178.7890625 C68.23222656 177.90992188 68.70273437 177.03078125 69.1875 176.125 C69.57292969 175.42632812 69.95835937 174.72765625 70.35546875 174.0078125 C71.2786775 171.13187737 71.01937228 169.87870733 70 167 C68.22856804 164.12428365 66.21773373 161.44694674 64.1875 158.75 C62.99258744 157.13087372 61.79859745 155.51106624 60.60546875 153.890625 C60.00009277 153.07271484 59.3947168 152.25480469 58.77099609 151.41210938 C56.12756442 147.81173648 53.56238238 144.15827377 51 140.5 C46.22655234 133.70768907 41.38018271 126.97062386 36.51049805 120.24707031 C33.21000107 115.68645628 29.94837777 111.1025866 26.734375 106.48046875 C21.46850359 98.94932382 16.09605775 91.49161329 10.6875 84.0625 C10.05199219 83.18851562 9.41648437 82.31453125 8.76171875 81.4140625 C7.64501223 79.88385267 6.52321888 78.35733153 5.39453125 76.8359375 C2 72.21481092 2 72.21481092 2 70 C1.34 70 0.68 70 0 70 C0 46.9 0 23.8 0 0 Z " fill="#B22025" transform="translate(302,326)"/>
<path d="M0 0 C0.66 0 1.32 0 2 0 C2.52980469 0.96808594 3.05960938 1.93617188 3.60546875 2.93359375 C6.22477227 7.51249885 9.25744034 11.76711092 12.3125 16.0625 C18.27553372 24.50834291 24.13421547 33.01959794 29.93676758 41.57641602 C30.82078247 42.87857056 30.82078247 42.87857056 31.72265625 44.20703125 C32.55240967 45.44187256 32.55240967 45.44187256 33.39892578 46.70166016 C34.42353183 48.17248074 35.49206266 49.61422172 36.61279297 51.01318359 C38.05859375 52.82421875 38.05859375 52.82421875 40 56 C39.58203125 58.46875 39.58203125 58.46875 38 61 C37.04673828 62.71703125 37.04673828 62.71703125 36.07421875 64.46875 C35.28295703 65.81504314 34.4870763 67.15862829 33.6875 68.5 C33.25163574 69.23629639 32.81577148 69.97259277 32.36669922 70.73120117 C28.32663293 77.52148422 24.16331934 84.23430227 19.98828125 90.94213867 C14.21511116 100.22863161 8.59654105 109.60629666 3 119 C5.41585956 123.40921453 7.85791414 127.2792421 11.125 131.125 C14.91919315 135.67058001 18.59076084 140.29120337 22.17578125 145.00219727 C24.37085388 147.88623117 26.58779998 150.74674569 28.85546875 153.57421875 C29.31896729 154.1583252 29.78246582 154.74243164 30.26000977 155.34423828 C31.1500179 156.46458836 32.04733674 157.57918113 32.95288086 158.68701172 C35.44273052 161.84386605 36 162.80627604 36 167 C34.72335992 169.37004476 33.40643362 171.56627804 31.9375 173.8125 C31.28334106 174.83573364 31.28334106 174.83573364 30.6159668 175.87963867 C29.08836969 178.26042199 27.5453234 180.63068581 26 183 C25.39510742 183.93070313 24.79021484 184.86140625 24.16699219 185.8203125 C20.99149086 190.70520343 17.80717981 195.58415199 14.61328125 200.45703125 C14.02635498 201.3706543 13.43942871 202.28427734 12.8347168 203.22558594 C11.56878128 205.1399028 10.24551162 207.01709652 8.87817383 208.86035156 C5.27048618 213.54706057 5.27048618 213.54706057 4.03686523 219.11352539 C4.8125931 221.32693189 5.82546971 223.13208475 7.0625 225.125 C7.94983901 226.75606246 8.83366107 228.38904087 9.71484375 230.0234375 C10.23030762 230.94479492 10.74577148 231.86615234 11.27685547 232.81542969 C14.42323568 238.63030408 17.22444559 244.61647436 20.08102417 250.57757568 C21.42574466 253.37582389 22.78578507 256.16647267 24.14656067 258.9569397 C25.12425524 260.96678387 26.09463424 262.98001653 27.06347656 264.99414062 C28.38154013 267.73365846 29.72590081 270.45834352 31.08496094 273.17773438 C31.74196624 274.51932086 32.39855772 275.86111011 33.0546875 277.203125 C33.52251144 278.11937653 33.52251144 278.11937653 33.99978638 279.05413818 C35.25920098 281.66355374 36.01776113 283.61808054 35.88208008 286.53564453 C34.78311732 289.60592686 33.38942352 292.35972528 31.83203125 295.2265625 C31.35608772 296.10905167 31.35608772 296.10905167 30.87052917 297.0093689 C29.85729091 298.88462925 28.83508056 300.75482075 27.8125 302.625 C27.14458509 303.85774953 26.47726215 305.09082 25.81054688 306.32421875 C25.48287323 306.92901062 25.15519958 307.53380249 24.81759644 308.15692139 C24.16235751 309.36668378 23.5081561 310.57700872 22.85501099 311.78790283 C21.3302589 314.60326705 19.7714044 317.38548904 18.13818359 320.13964844 C17.302146 321.56712402 17.302146 321.56712402 16.44921875 323.0234375 C15.95123779 323.84505371 15.45325684 324.66666992 14.94018555 325.51318359 C13.72312585 328.73233969 14.13335763 330.70749367 15 334 C24.0159449 348.67391032 38.91489639 357.90216204 55 363 C50.157343 364.84755397 46.63347141 362.49495396 42.15625 360.51171875 C24.99296314 352.29118408 10.79281103 338.61328463 3.70703125 320.73828125 C1.5256857 314.33599269 -0.12582017 308.38524528 -0.12304783 301.59022808 C-0.12503888 300.5108704 -0.12702993 299.43151271 -0.12908131 298.31944722 C-0.12616847 297.1394903 -0.12325563 295.95953338 -0.12025452 294.74382019 C-0.12110894 293.48589749 -0.12196337 292.22797479 -0.12284368 290.93193322 C-0.12507945 287.44293529 -0.1210799 283.95396807 -0.11606562 280.46497405 C-0.11174815 276.70156393 -0.11320847 272.93815555 -0.1139679 269.17474365 C-0.11449231 262.65522539 -0.11135414 256.13571714 -0.10573006 249.6162014 C-0.09760386 240.19007023 -0.09499869 230.7639439 -0.09374207 221.3378096 C-0.09155331 206.04462097 -0.084898 190.75143768 -0.07543945 175.45825195 C-0.06626078 160.60213243 -0.05918217 145.74601436 -0.05493164 130.88989258 C-0.05466892 129.97419855 -0.05440619 129.05850453 -0.05413551 128.1150622 C-0.05283047 123.52130551 -0.05156677 118.9275488 -0.05032361 114.33379209 C-0.03995649 76.22252433 -0.02234295 38.11126251 0 0 Z " fill="#C0272D" transform="translate(33,165)"/>
<path d="M0 0 C7.38091037 5.97122299 12.56134752 13.49050711 14 23 C14.92501678 34.43381399 13.0657644 44.20272802 5.6875 53.22265625 C-1.86099123 61.17303474 -10.4790518 65.16657866 -21.4375 65.5 C-32.4326242 65.15674839 -41.12490493 61.76763763 -49 54 C-55.75345044 46.04954849 -58.63226378 37.1107201 -58.28125 26.7265625 C-57.13095222 15.57506457 -51.80900768 6.61347372 -43.21484375 -0.49609375 C-29.87891748 -9.55135233 -13.05787676 -9.115001 0 0 Z " fill="#A5272D" transform="translate(90,85)"/>
<path d="M0 0 C8.22197249 1.33713739 14.88844647 6.54526452 20 13 C25.85427215 22.66635633 27.85558705 32.82481361 25.31640625 44.01171875 C22.1324492 53.48432127 16.74642121 60.98083129 8 66 C4.38784727 67.53647712 0.73425652 68.79932266 -3 70 C-3.22131592 69.39631592 -3.44263184 68.79263184 -3.6706543 68.1706543 C-6.51221833 60.71738336 -10.24797246 54.04605673 -14.37304688 47.23632812 C-16.5501029 43.46218148 -17.9711684 40.89377969 -18.11328125 36.48828125 C-16.63495269 31.85618509 -14.62351587 27.6780099 -12.375 23.375 C-11.92785645 22.50069336 -11.48071289 21.62638672 -11.02001953 20.72558594 C-7.44495615 13.76490042 -3.77682328 6.85330847 0 0 Z " fill="#C0272D" transform="translate(78,80)"/>
</svg>
