<?xml version="1.0" encoding="UTF-8"?>
<svg version="1.1" xmlns="http://www.w3.org/2000/svg" width="512" height="512">
<path d="M0 0 C168.96 0 337.92 0 512 0 C512 168.96 512 337.92 512 512 C343.04 512 174.08 512 0 512 C0 343.04 0 174.08 0 0 Z " fill="#E21F26" transform="translate(0,0)"/>
<path d="M0 0 C2.05163507 1.57228108 4.05227222 3.17000548 6.0078125 4.859375 C1.70996172 9.89100518 -2.62644292 14.88655943 -6.9921875 19.859375 C-10.6476392 19.22179622 -13.07146987 17.6202717 -16.1171875 15.546875 C-29.82930872 6.61933083 -44.84837795 4.7235291 -60.87890625 7.54296875 C-67.76431814 9.50673711 -73.33505958 12.51508267 -78.9921875 16.859375 C-79.8584375 17.436875 -80.7246875 18.014375 -81.6171875 18.609375 C-100.07642836 36.09707687 -102.67091153 63.02925468 -104.9921875 86.859375 C-104.3321875 86.859375 -103.6721875 86.859375 -102.9921875 86.859375 C-102.9921875 86.199375 -102.9921875 85.539375 -102.9921875 84.859375 C-86.62072975 70.00634925 -67.65656211 61.85693202 -45.44921875 62.60546875 C-29.09237799 63.43038644 -14.48309508 69.29806531 -2.98046875 81.26171875 C-0.4345115 84.58796938 1.48988464 88.06810551 3.3828125 91.796875 C3.88373413 92.78083252 3.88373413 92.78083252 4.39477539 93.78466797 C8.56333465 102.46925579 9.3334404 110.7488532 9.2578125 120.296875 C9.26554688 121.26947266 9.27328125 122.24207031 9.28125 123.24414062 C9.2560352 132.68077849 8.07390515 141.05344062 3.4453125 149.359375 C3.09525146 149.99810547 2.74519043 150.63683594 2.38452148 151.29492188 C-5.84594417 165.76334833 -19.81292895 177.21371407 -35.91259766 181.69848633 C-56.51206386 186.85187456 -75.67776505 183.8349623 -93.9921875 172.859375 C-113.46516316 159.69169315 -122.09015636 138.47531523 -126.7421875 116.28125 C-132.05836462 82.16911348 -128.43144124 43.21912636 -108.2734375 14.40234375 C-106.58397009 12.14844064 -104.83009536 9.99359044 -102.9921875 7.859375 C-102.41082031 7.18261719 -101.82945312 6.50585938 -101.23046875 5.80859375 C-74.94661002 -22.56915728 -29.66937391 -21.22560953 0 0 Z " fill="#FEFCFC" transform="translate(403.9921875,149.140625)"/>
<path d="M0 0 C100.20422535 0 100.20422535 0 118.75 17.25 C132.26900163 31.72553477 132.74230602 49.2621038 132.17919922 68.02392578 C131.57231075 78.10290453 127.84389403 86.83616814 122 95 C121.54882812 95.63421875 121.09765625 96.2684375 120.6328125 96.921875 C114.08571257 105.28144892 104.67509592 110.11562816 95 114 C94.28457031 114.29777344 93.56914062 114.59554687 92.83203125 114.90234375 C78.25163413 120.40076743 61.84345636 119.24507566 46.5625 119.125 C39.116875 119.08375 31.67125 119.0425 24 119 C24 144.74 24 170.48 24 197 C16.08 197 8.16 197 0 197 C0 131.99 0 66.98 0 0 Z " fill="#FEFEFE" transform="translate(121,132)"/>
<path d="M0 0 C7.0125 -0.04125 14.025 -0.0825 21.25 -0.125 C23.43786133 -0.14320801 25.62572266 -0.16141602 27.87988281 -0.18017578 C44.04562864 -0.25963395 62.39998932 -0.2565978 74.80859375 11.75 C82.03847749 19.44584298 83.50223523 26.59722069 83.375 36.875 C83.38660156 37.80441406 83.39820313 38.73382813 83.41015625 39.69140625 C83.36716439 49.96646102 80.86896801 59.16907585 74 67 C54.50325699 84.0644008 22.84440003 79 0 79 C0 52.93 0 26.86 0 0 Z " fill="#ED2126" transform="translate(145,152)"/>
<path d="M0 0 C8.41784221 6.19775196 12.04758642 15.29453078 14.0625 25.3125 C15.53339094 38.71561847 12.25979355 51.52858946 4.0625 62.3125 C-2.72832676 69.93912082 -12.42127766 74.89143055 -22.625 75.55078125 C-37.33238538 75.93039287 -47.54511228 72.9056127 -58.5625 62.9375 C-67.1312703 53.46675388 -71.61136315 43.88616618 -74.3125 31.4375 C-74.49248535 30.61660889 -74.6724707 29.79571777 -74.85791016 28.94995117 C-76.43229517 21.11260149 -76.43229517 21.11260149 -74.9375 17.3125 C-57.20747602 -4.96643922 -25.47671 -15.16772619 0 0 Z " fill="#ED1E25" transform="translate(375.9375,237.6875)"/>
<path d="M0 0 C3.06213042 0.03970782 6.11992555 0.02065744 9.18212891 -0.00512695 C11.15480172 0.00243329 13.12746504 0.01338789 15.10009766 0.02807617 C16.00143433 0.02109207 16.902771 0.01410797 17.8314209 0.00691223 C25.30094678 0.1703352 31.87657901 2.37662987 37.4864502 7.46748352 C43.28856886 13.70827936 45.22176336 20.22763618 44.97900391 28.66088867 C43.98342705 36.10401091 40.33311443 41.74939007 34.60791016 46.47338867 C28.22616852 50.39779301 23.13335221 51.17665038 15.76025391 51.12573242 C14.834702 51.1286026 13.90915009 51.13147278 12.95555115 51.13442993 C11.00657537 51.13646286 9.05757882 51.13098719 7.10864258 51.1184082 C4.14373601 51.10236197 1.18019627 51.11827384 -1.78466797 51.13745117 C-3.68636366 51.13546825 -5.5880585 51.13162355 -7.48974609 51.12573242 C-8.36706894 51.13180511 -9.24439178 51.13787781 -10.14830017 51.14413452 C-17.97922235 51.05573356 -24.64011178 49.35747325 -30.43115234 43.72729492 C-36.24328418 36.08849307 -37.23418321 29.12893326 -36.43115234 19.72729492 C-34.86458697 12.76351161 -31.32833422 7.85836087 -25.68505859 3.62182617 C-17.85619161 -0.98779263 -8.80339567 -0.12777984 0 0 Z " fill="#FEFAF8" transform="translate(94.43115234375,397.272705078125)"/>
<path d="M0 0 C0.84434097 -0.00287018 1.68868195 -0.00574036 2.55860901 -0.00869751 C4.33961663 -0.01073373 6.12064683 -0.00523479 7.90161133 0.00732422 C10.61656136 0.02336456 13.33001831 0.00747133 16.04492188 -0.01171875 C17.77995118 -0.00973585 19.51497956 -0.0058912 21.25 0 C22.05642441 -0.00607269 22.86284882 -0.01214539 23.69371033 -0.0184021 C29.26701459 0.05056235 33.60361233 0.98275339 37.8359375 4.93359375 C42.02505177 10.41166625 42.81293027 13.58469269 42.19140625 20.3984375 C40.22706586 26.07319863 36.56339963 29.71244081 31.19140625 32.3984375 C25.57526867 32.68440261 19.95793487 32.71230055 14.33520508 32.74853516 C12.45649802 32.7650591 10.57785291 32.792302 8.69946289 32.83056641 C5.98420754 32.88557466 3.27042644 32.9072479 0.5546875 32.921875 C-0.27786057 32.94454437 -1.11040863 32.96721375 -1.96818542 32.99057007 C-8.14071761 32.96840967 -11.13272081 31.43657091 -15.80859375 27.3984375 C-18.66660265 23.49669496 -20.18234076 19.13077723 -19.87109375 14.2734375 C-18.8322546 9.01628181 -15.96528887 5.05488023 -11.76245117 1.8269043 C-7.76138479 -0.10798614 -4.3879659 -0.03296037 0 0 Z " fill="#DE2127" transform="translate(86.80859375,406.6015625)"/>
<path d="M0 0 C7.92 -0.103125 15.84 -0.20625 24 -0.3125 C26.4853125 -0.35802002 28.970625 -0.40354004 31.53125 -0.45043945 C33.52081964 -0.4650547 35.51040433 -0.47779291 37.5 -0.48828125 C38.51707031 -0.51386108 39.53414062 -0.53944092 40.58203125 -0.5657959 C47.27106804 -0.56986268 51.89911981 0.50799235 57 5 C60.35297153 8.89579201 61.6207033 12.94464166 61.31640625 18.01953125 C60.23570288 24.78393381 57.2822752 28.148341 52 32 C49.09907498 33.93395001 48.10325263 34.30131941 44.8125 34.625 C43.554375 34.74875 42.29625 34.8725 41 35 C41.44915771 35.38333496 41.89831543 35.76666992 42.36108398 36.16162109 C44.38947267 37.8960366 46.41352043 39.63544186 48.4375 41.375 C49.14455078 41.97828125 49.85160156 42.5815625 50.58007812 43.203125 C51.25361328 43.78320312 51.92714844 44.36328125 52.62109375 44.9609375 C53.2442749 45.49509277 53.86745605 46.02924805 54.50952148 46.57958984 C56 48 56 48 57 50 C51.56884782 50.97911372 46.0194666 51.72256588 41.07421875 48.90136719 C37.02480536 45.87688296 33.45016054 42.34148209 29.86230469 38.79248047 C26.90240834 35.94356083 23.73402421 33.35789278 20.5625 30.75 C18.680127 29.19246248 16.83141915 27.61831979 15 26 C15 25.67 15 25.34 15 25 C15.88260498 24.99589111 16.76520996 24.99178223 17.67456055 24.98754883 C20.9647604 24.96050016 24.25311398 24.91135049 27.54272461 24.84741211 C28.96350702 24.82428497 30.38445958 24.80984874 31.80541992 24.80444336 C33.85442466 24.79511339 35.9007735 24.75404834 37.94921875 24.70703125 C39.79519653 24.68346558 39.79519653 24.68346558 41.6784668 24.65942383 C45.88724144 23.823856 47.41570488 22.37107281 50 19 C50.17761741 15.32416555 50.17761741 15.32416555 49 12 C45.24381166 9.49587444 42.19038508 9.65091534 37.83203125 9.5859375 C37.12735718 9.56829346 36.42268311 9.55064941 35.69665527 9.5324707 C33.06883399 9.46948998 30.44063314 9.4232436 27.8125 9.375 C21.934375 9.25125 16.05625 9.1275 10 9 C10 22.53 10 36.06 10 50 C6.7 50 3.4 50 0 50 C0 33.5 0 17 0 0 Z " fill="#FEFBFA" transform="translate(144,398)"/>
<path d="M0 0 C0.9237442 0.0028299 1.8474884 0.00565979 2.79922485 0.00857544 C5.73347226 0.01972071 8.6674082 0.04481485 11.6015625 0.0703125 C13.59765182 0.08034961 15.59374596 0.08947418 17.58984375 0.09765625 C22.46886899 0.11964153 27.34766304 0.15413233 32.2265625 0.1953125 C30.8575652 3.44646638 29.39353877 6.39969982 27.2265625 9.1953125 C24.05565319 10.09879583 22.44373507 10.31459467 19.29296875 10.15234375 C18.15963356 10.15230598 18.15963356 10.15230598 17.00340271 10.15226746 C14.59600603 10.14638003 12.19528048 10.08087433 9.7890625 10.0078125 C7.38755882 9.96126332 4.98736901 9.9278999 2.58543396 9.91691589 C1.09477139 9.90744044 -0.39596271 9.87646569 -1.88560486 9.82051086 C-7.02694821 9.75039046 -9.8063124 10.98619895 -13.7734375 14.1953125 C-15.89045673 16.60433438 -16.75054544 18.12663633 -17.7734375 21.1953125 C-2.2634375 21.1953125 13.2465625 21.1953125 29.2265625 21.1953125 C25.2265625 28.1953125 25.2265625 28.1953125 24.2265625 29.1953125 C21.12405049 29.28405385 18.0438813 29.31049705 14.94140625 29.29296875 C14.01058731 29.2915538 13.07976837 29.29013885 12.1207428 29.28868103 C9.13515059 29.28306422 6.14963221 29.2705089 3.1640625 29.2578125 C1.14518337 29.25279966 -0.87369693 29.24823638 -2.89257812 29.24414062 C-7.85289322 29.23308933 -12.81315282 29.21581345 -17.7734375 29.1953125 C-15.32412013 34.41528625 -13.01776893 37.57314679 -7.7734375 40.1953125 C-4.7130181 40.35277076 -1.6720185 40.45398127 1.390625 40.51171875 C2.29783295 40.53249985 3.20504089 40.55328094 4.13973999 40.57469177 C7.0436023 40.64018385 9.94755655 40.69907064 12.8515625 40.7578125 C14.81771792 40.80099805 16.78386397 40.84461235 18.75 40.88867188 C23.57542612 40.99586489 28.4009449 41.09713331 33.2265625 41.1953125 C30.82413719 47.84818259 30.82413719 47.84818259 28.2265625 50.1953125 C25.26602635 50.61335383 22.68233624 50.77988001 19.71875 50.76171875 C18.45866623 50.77101662 18.45866623 50.77101662 17.17312622 50.78050232 C15.39277301 50.78760822 13.61235346 50.78441299 11.83203125 50.77172852 C9.13153395 50.75796525 6.43457388 50.7917932 3.734375 50.83007812 C-6.32772609 50.87555615 -13.88567105 50.63674827 -21.58984375 43.51660156 C-26.87531084 38.18808242 -28.83469968 31.6239895 -29.2734375 24.2578125 C-29.02240143 17.52167794 -26.35107307 12.05876392 -21.87109375 7.08203125 C-15.1043624 0.80884269 -8.95980777 -0.10418499 0 0 Z " fill="#FEFAF9" transform="translate(422.7734375,397.8046875)"/>
<path d="M0 0 C3.27400554 3.21767856 5.57737399 7.12819589 8 11 C8.90566845 12.41964201 9.81195354 13.83889075 10.71875 15.2578125 C12.74299777 18.43993134 14.74864942 21.63303133 16.74609375 24.83203125 C20.7357755 31.20203926 24.85616884 37.48630935 28.98706055 43.76538086 C29.77463745 44.96819702 29.77463745 44.96819702 30.578125 46.1953125 C31.04637695 46.90703613 31.51462891 47.61875977 31.99707031 48.35205078 C33 50 33 50 33 51 C31.10927993 51.21711618 29.21131785 51.37173245 27.3125 51.5 C25.72888672 51.63921875 25.72888672 51.63921875 24.11328125 51.78125 C23.08589844 51.5234375 22.05851562 51.265625 21 51 C19.96435547 49.20336914 19.96435547 49.20336914 18.94921875 47.00390625 C17.82530752 44.73633814 17.82530752 44.73633814 16 43 C11.50586467 41.98807549 7.082901 42.24674701 2.5 42.4375 C-9.82272158 42.91145083 -9.82272158 42.91145083 -12.95703125 40.48486328 C-14.70378538 38.10767853 -16 36.01341345 -16 33 C-7.75 33 0.5 33 9 33 C5.0557107 26.83399501 5.0557107 26.83399501 1.1015625 20.67431641 C0.61429688 19.90780762 0.12703125 19.14129883 -0.375 18.3515625 C-0.87773437 17.56604004 -1.38046875 16.78051758 -1.8984375 15.97119141 C-3 14 -3 14 -3 12 C-3.66 12 -4.32 12 -5 12 C-5.21527344 12.64066406 -5.43054688 13.28132813 -5.65234375 13.94140625 C-7.53637835 18.21734565 -10.03957393 22.01294833 -12.5625 25.9375 C-13.09464111 26.77200684 -13.62678223 27.60651367 -14.17504883 28.46630859 C-15.77948505 30.98004552 -17.38959877 33.49008182 -19 36 C-19.91965076 37.44116388 -20.83894864 38.88255303 -21.7578125 40.32421875 C-22.56736511 41.59136517 -23.37723921 42.85830629 -24.1875 44.125 C-24.56140869 44.71015381 -24.93531738 45.29530762 -25.32055664 45.89819336 C-27.88189817 49.88189817 -27.88189817 49.88189817 -29 51 C-30.85287502 51.07226502 -32.70833878 51.0838122 -34.5625 51.0625 C-35.57441406 51.05347656 -36.58632812 51.04445313 -37.62890625 51.03515625 C-38.41136719 51.02355469 -39.19382813 51.01195312 -40 51 C-38.29542484 46.07240628 -35.60487441 41.84523943 -32.875 37.4375 C-32.3807251 36.63465576 -31.8864502 35.83181152 -31.37719727 35.00463867 C-28.03882525 29.60880348 -24.61312754 24.2825762 -21.05078125 19.03125 C-19.46579109 16.68848359 -17.90394691 14.33551161 -16.35546875 11.96875 C-15.6759314 10.93463989 -15.6759314 10.93463989 -14.98266602 9.87963867 C-14.09310066 8.52521503 -13.20674593 7.168676 -12.32397461 5.80981445 C-8.77826293 0.43565709 -6.63499027 -1.28419166 0 0 Z " fill="#FEFAF8" transform="translate(246,397)"/>
<path d="M0 0 C0.9237442 0.0028299 1.8474884 0.00565979 2.79922485 0.00857544 C5.73347226 0.01972071 8.6674082 0.04481485 11.6015625 0.0703125 C13.59765182 0.08034961 15.59374596 0.08947418 17.58984375 0.09765625 C22.46886899 0.11964153 27.34766304 0.15413233 32.2265625 0.1953125 C30.8575652 3.44646638 29.39353877 6.39969982 27.2265625 9.1953125 C24.05565319 10.09879583 22.44373507 10.31459467 19.29296875 10.15234375 C18.15963356 10.15230598 18.15963356 10.15230598 17.00340271 10.15226746 C14.59600603 10.14638003 12.19528048 10.08087433 9.7890625 10.0078125 C7.38755882 9.96126332 4.98736901 9.9278999 2.58543396 9.91691589 C1.09477139 9.90744044 -0.39596271 9.87646569 -1.88560486 9.82051086 C-7.03356535 9.75030021 -9.80630297 10.97611341 -13.7734375 14.1953125 C-17.62700932 18.45452346 -18.51656997 22.062478 -18.296875 27.65625 C-17.39707031 32.02097425 -14.99140847 35.18400021 -11.7734375 38.1953125 C-8.93892254 39.85600049 -6.8284454 40.45355309 -3.55566406 40.51416016 C-2.73511536 40.53402985 -1.91456665 40.55389954 -1.06915283 40.57437134 C-0.19297302 40.58592255 0.68320679 40.59747375 1.5859375 40.609375 C2.94250458 40.63842422 2.94250458 40.63842422 4.32647705 40.6680603 C7.20974349 40.72775081 10.09305008 40.77419936 12.9765625 40.8203125 C14.93361098 40.85850197 16.89064283 40.89755427 18.84765625 40.9375 C23.64048961 41.03344375 28.43340165 41.11751377 33.2265625 41.1953125 C30.82109005 47.85662083 30.82109005 47.85662083 28.2265625 50.1953125 C25.2541415 50.60084262 22.65729967 50.75619691 19.68359375 50.7265625 C18.41995247 50.73230286 18.41995247 50.73230286 17.13078308 50.73815918 C15.34620979 50.74088166 13.56159683 50.73349693 11.77709961 50.71679688 C9.06596901 50.69552363 6.35752877 50.71651613 3.64648438 50.7421875 C1.90884838 50.73954167 0.17121404 50.73441144 -1.56640625 50.7265625 C-2.3687822 50.73465942 -3.17115814 50.74275635 -3.99784851 50.75109863 C-10.69724574 50.64147126 -15.80785284 48.64651257 -20.98046875 44.37109375 C-26.57851421 37.87409209 -29.50308341 31.20749533 -29.109375 22.515625 C-27.9164194 14.27590842 -24.41960747 9.16232831 -18.1875 3.7890625 C-12.36495903 -0.05494513 -6.73090624 -0.07826724 0 0 Z " fill="#FEF9F7" transform="translate(302.7734375,397.8046875)"/>
<path d="M0 0 C3.63 0 7.26 0 11 0 C11 13.86 11 27.72 11 42 C25.85 42 40.7 42 56 42 C53.3743617 48.56409575 53.3743617 48.56409575 51 51 C48.79246521 51.50120544 48.79246521 51.50120544 46.19311523 51.50170898 C45.21878036 51.51108994 44.2444455 51.52047089 43.24058533 51.53013611 C42.19052811 51.51890213 41.14047089 51.50766815 40.05859375 51.49609375 C38.97997574 51.49754898 37.90135773 51.49900421 36.79005432 51.50050354 C34.50950418 51.49884305 32.22894301 51.48726518 29.94848633 51.46655273 C26.44759827 51.43758356 22.94822205 51.44594406 19.44726562 51.45898438 C17.2343676 51.45274776 15.02147438 51.44435742 12.80859375 51.43359375 C11.7565123 51.43652939 10.70443085 51.43946503 9.62046814 51.44248962 C8.64928543 51.42980545 7.67810272 51.41712128 6.67749023 51.40405273 C5.82050034 51.39864975 4.96351044 51.39324677 4.08055115 51.38768005 C3.05067833 51.19577843 3.05067833 51.19577843 2 51 C-0.14782833 47.77825751 -0.24649148 46.9566269 -0.22705078 43.25317383 C-0.22689972 42.29240433 -0.22674866 41.33163483 -0.22659302 40.3417511 C-0.21627045 39.30729355 -0.20594788 38.272836 -0.1953125 37.20703125 C-0.1924826 36.14586594 -0.18965271 35.08470062 -0.18673706 33.99137878 C-0.17553184 30.59830503 -0.15042647 27.20549413 -0.125 23.8125 C-0.11497065 21.51367568 -0.10584472 19.21484724 -0.09765625 16.91601562 C-0.07559136 11.27724229 -0.04105901 5.63866573 0 0 Z " fill="#FDF0EC" transform="translate(340,397)"/>
<path d="M0 0 C0.66 0 1.32 0 2 0 C3.32861328 1.71240234 3.32861328 1.71240234 4.8203125 4.0859375 C5.62275391 5.35824219 5.62275391 5.35824219 6.44140625 6.65625 C6.99699219 7.5534375 7.55257812 8.450625 8.125 9.375 C8.68832031 10.26445312 9.25164062 11.15390625 9.83203125 12.0703125 C14 18.73098895 14 18.73098895 14 21 C5.75 21 -2.5 21 -11 21 C-11 21.66 -11 22.32 -11 23 C-11.99 23.33 -12.98 23.66 -14 24 C-11.98232615 18.61616569 -9.06187435 14.02944988 -6 9.1875 C-5.4534375 8.30384766 -4.906875 7.42019531 -4.34375 6.50976562 C-3.8178125 5.67509766 -3.291875 4.84042969 -2.75 3.98046875 C-2.27046875 3.21629639 -1.7909375 2.45212402 -1.296875 1.66479492 C-0.86890625 1.1154126 -0.4409375 0.56603027 0 0 Z " fill="#ED2328" transform="translate(241,409)"/>
<path d="M0 0 C6.46153846 0.46153846 6.46153846 0.46153846 9 3 C8.53846154 9.46153846 8.53846154 9.46153846 6 12 C2.5 11.8125 2.5 11.8125 -1 11 C-3 8 -3 8 -2.75 4.9375 C-2 2 -2 2 0 0 Z " fill="#EEA294" transform="translate(462,397)"/>
<path d="M0 0 C1.32 0 2.64 0 4 0 C4.33 1.98 4.66 3.96 5 6 C3.33333333 6 1.66666667 6 0 6 C0 4.02 0 2.04 0 0 Z " fill="#F8DCD5" transform="translate(463,400)"/>
</svg>
