<svg xmlns="http://www.w3.org/2000/svg" viewBox="0 0 1600 800"><svg width="800" height="800" viewBox="0 0 32 32" fill="none" xmlns="http://www.w3.org/2000/svg" x="0"><path fill-rule="evenodd" clip-rule="evenodd" d="M13.0164 2C10.8193 2 9.03825 3.72453 9.03825 5.85185V8.51852H15.9235V9.25926H5.97814C3.78107 9.25926 2 10.9838 2 13.1111L2 18.8889C2 21.0162 3.78107 22.7407 5.97814 22.7407H8.27322V19.4815C8.27322 17.3542 10.0543 15.6296 12.2514 15.6296H19.5956C21.4547 15.6296 22.9617 14.1704 22.9617 12.3704V5.85185C22.9617 3.72453 21.1807 2 18.9836 2H13.0164ZM12.0984 6.74074C12.8589 6.74074 13.4754 6.14378 13.4754 5.40741C13.4754 4.67103 12.8589 4.07407 12.0984 4.07407C11.3378 4.07407 10.7213 4.67103 10.7213 5.40741C10.7213 6.14378 11.3378 6.74074 12.0984 6.74074Z" fill="url(#paint0_linear_87_8204)" /><path fill-rule="evenodd" clip-rule="evenodd" d="M18.9834 30C21.1805 30 22.9616 28.2755 22.9616 26.1482V23.4815L16.0763 23.4815L16.0763 22.7408L26.0217 22.7408C28.2188 22.7408 29.9998 21.0162 29.9998 18.8889V13.1111C29.9998 10.9838 28.2188 9.25928 26.0217 9.25928L23.7266 9.25928V12.5185C23.7266 14.6459 21.9455 16.3704 19.7485 16.3704L12.4042 16.3704C10.5451 16.3704 9.03809 17.8296 9.03809 19.6296L9.03809 26.1482C9.03809 28.2755 10.8192 30 13.0162 30H18.9834ZM19.9015 25.2593C19.1409 25.2593 18.5244 25.8562 18.5244 26.5926C18.5244 27.329 19.1409 27.9259 19.9015 27.9259C20.662 27.9259 21.2785 27.329 21.2785 26.5926C21.2785 25.8562 20.662 25.2593 19.9015 25.2593Z" fill="url(#paint1_linear_87_8204)" /><defs><linearGradient id="paint0_linear_87_8204" x1="12.4809" y1="2" x2="12.4809" y2="22.7407" gradientUnits="userSpaceOnUse"><stop stop-color="#327EBD" /><stop offset="1" stop-color="#1565A7" /></linearGradient><linearGradient id="paint1_linear_87_8204" x1="19.519" y1="9.25928" x2="19.519" y2="30" gradientUnits="userSpaceOnUse"><stop stop-color="#FFDA4B" /><stop offset="1" stop-color="#F9C600" /></linearGradient></defs></svg><svg width="800" height="800" viewBox="0 0 32 32" fill="none" xmlns="http://www.w3.org/2000/svg" x="800"><path d="M27.6947 22.9999C27.883 22.6617 28 22.2807 28 21.9385V10.0613C28 9.71913 27.8831 9.33818 27.6947 9L16 16L27.6947 22.9999Z" fill="#7F3A86" /><path d="M17.0395 29.7433L26.9611 23.8047C27.2469 23.6336 27.5067 23.3382 27.695 23L16.0003 16L4.30566 23C4.49398 23.3382 4.75382 23.6337 5.03955 23.8047L14.9611 29.7433C15.5326 30.0855 16.468 30.0855 17.0395 29.7433Z" fill="#662579" /><path d="M27.6947 8.99996C27.5064 8.6617 27.2465 8.36629 26.9608 8.19521L17.0392 2.25662C16.4677 1.91446 15.5323 1.91446 14.9608 2.25662L5.03922 8.19521C4.46761 8.53729 4 9.37709 4 10.0613V21.9386C4 22.2807 4.11694 22.6618 4.30533 23L16 16L27.6947 8.99996Z" fill="#9A5196" /><path d="M16.0385 24C11.6061 24 8 20.4112 8 16C8 11.5888 11.6061 8 16.0385 8C18.8458 8 21.4674 9.47569 22.919 11.8618L19.4765 13.9265C18.7492 12.736 17.4399 12 16.0385 12C13.8222 12 12.0193 13.7944 12.0193 16C12.0193 18.2056 13.8222 20 16.0385 20C17.4362 20 18.7421 19.2681 19.4707 18.0832L22.9205 20.1359C21.4692 22.5234 18.8467 24 16.0385 24Z" fill="white" /><path fill-rule="evenodd" clip-rule="evenodd" d="M25.0001 13V13.9974H22.9999V13H22.0001V13.9974H21V15H22.0001V16.9948H21V18H22.0001V19H22.9999L23 18H25.0001V19H25.9999V18H27V17H25.9999V15H27V13.9974H25.9999V13H25.0001ZM25.0001 17V15H22.9999V16.9948L25.0001 17Z" fill="white" /></svg></svg>